<?xml version="1.0" encoding="UTF-8"?><svg xmlns="http://www.w3.org/2000/svg" viewBox="0 0 271.176 254.361" x="0px" y="0px" width="272px" height="255px" xmlns:xlink="http://www.w3.org/1999/xlink" version="1.1"><title>polygon_2 copy 7</title><g id="Layer_2" data-name="Layer 2"><g id="polygon_2_copy_7" data-name="polygon_2 copy 7"><path d="M271.11,58a5,5,0,0,0-2.187-3.372L187.1.822a5,5,0,0,0-4.287-.58L30.363,49.563A5,5,0,0,0,27,53.343L.1,188.415a5,5,0,0,0,2.05,5.083l86.312,59.969a4.994,4.994,0,0,0,2.852.894,5.063,5.063,0,0,0,.59-.035L261.722,234.15a5,5,0,0,0,3.6-7.691l-56.339-86.675,61.124-77.893A5,5,0,0,0,271.11,58Z" fill="#4053fa"/></g></g></svg>