<?xml version="1.0" encoding="UTF-8"?><svg version="1.1" xmlns="http://www.w3.org/2000/svg" xmlns:xlink="http://www.w3.org/1999/xlink" viewBox="0 0 1500 1500" width="1500" height="1500" x="0px" y="0px">
    
    
    <!-- ITEM 0 -->
    <g>
        <defs>
            <clipPath id="clip-path-id-viewbox-item-0">
                <rect x="0.0" y="0.0" width="398.489" height="514.127"/>
            </clipPath>
        </defs>
        <g transform="translate(268.0 199.0) rotate(0.0 427.5 550.5) scale(2.1456050229742853 2.1414942222446984)">
            <g clip-path="url(#clip-path-id-viewbox-item-0)" transform="translate(-0.0 -0.0)">
                
<g>
	<path style="fill:#DB968E;" d="M387.244,181.306c14.45,43.315,13.806,88.888,1.185,132.757c-12.621,43.88-36.745,84.034-72,113.046   c-0.034,0.023-0.068,0.056-0.102,0.079c4.019-12.869,7.688-25.851,11.029-38.89h0.011c21.031-29.464,34.307-59.605,43.36-94.657   c7.428-28.809,10.149-60.745-3.511-87.184c-3.635-7.022-8.399-13.445-14.009-19.01c7.304-23.334,4.64-51.635-7.135-72.881   C364.813,133.136,379.139,156.177,387.244,181.306z"/>
	<path style="fill:#FF736B;" d="M367.218,206.457c13.66,26.438,10.939,58.375,3.511,87.184   c-9.054,35.052-22.329,65.193-43.36,94.657h-0.011c4.109-15.951,7.744-32.004,10.905-48.079c1.411-7.157,2.721-14.45,1.964-21.708   c-0.756-7.259-3.861-14.585-9.776-18.875c-5.001-3.624-11.526-4.719-17.667-3.974c-0.598,0.068-1.185,0.158-1.784,0.26   l-11.605-51.929l1.14-0.26c23.684-9.268,42.977-29.125,51.59-53.046c0.384-1.072,0.745-2.145,1.084-3.24   C358.819,193.012,363.583,199.436,367.218,206.457z"/>
	<path style="fill:#FF736B;" d="M172.248,139.447c-26.879,11.707-53.78,23.402-80.659,35.108c-3.793,1.648-7.71,3.33-11.853,3.454   c-2.043,0.056-4.154-0.35-5.994-1.219c12.339-16.256,25.976-24.226,40.73-37.377c3.68-3.285,7.631-7.067,8.026-11.989l-0.226-0.429   c11.989-6.175,24.395-11.548,37.152-15.929c-12.553,3.951-25.095,7.891-37.637,11.842c-1.355-3.398-4.391-6.243-7.812-7.767   c-4.865-2.156-10.352-2.235-15.669-2.269c-7.936-0.056-15.872,0.056-23.808,0.226c2.337-1.49,4.685-2.935,7.067-4.357   c1.885-1.14,3.793-2.246,5.712-3.33c1.129-0.655,2.269-1.287,3.421-1.919c23.571-13.027,48.892-22.894,75.139-28.73   c-8.918-8.354-16.143-18.469-21.268-29.554l0.09-0.045c11.661,0.102,23.311-0.011,34.928-0.948   c3.172-0.248,6.423-0.621,9.652-1.151c5.441,6.028,10.882,12.079,16.279,18.164c1.987,2.224,3.951,4.448,5.915,6.683   c11.018-1.253,22.16-1.343,33.2-0.35c26.551,2.416,52.527,11.199,74.947,25.66c9.55,6.152,18.423,13.321,26.484,21.325   c0,0.011,0.011,0.011,0.011,0.023c11.774,21.246,14.438,49.547,7.135,72.881c-10.544-10.487-24.09-17.994-38.653-21.054   c-22.307-4.685-41.419-0.124-66.311,13.355c-2.551,1.355-5.114,2.698-7.665,4.053c-21.054,11.12-42.119,22.262-63.184,33.381   l-0.045-0.09c-4.719-15.466,2.213-34.307,14.675-44.614l-0.011-0.023c5.622-3.262,11.368-6.378,17.215-9.404   c-26.484,12.181-52.967,24.361-79.451,36.553c-4.696,2.156-9.392,4.312-14.179,6.231c1.016-16.73,11.142-35.707,23.865-46.6   c10.6-7.022,21.562-13.547,32.817-19.699L172.248,139.447z"/>
	<path style="fill:#E64337;" d="M353.208,187.447c-0.339,1.095-0.7,2.167-1.084,3.24c-8.613,23.921-27.906,43.778-51.59,53.046   l-1.14,0.26l-15.725-70.386l-42.706,10.905l-0.384-0.711c2.551-1.355,5.114-2.698,7.665-4.053   c24.892-13.479,44.004-18.04,66.311-13.355C329.118,169.452,342.665,176.959,353.208,187.447z"/>
	<path style="fill:#FF736B;" d="M340.226,318.51c0.756,7.259-0.553,14.551-1.964,21.708c-3.161,16.075-6.796,32.128-10.905,48.079   c-3.342,13.039-7.01,26.021-11.029,38.89c-5.057,4.233-10.691,8.162-16.595,11.661c9.528-28.425,18.119-57.167,22.228-86.811   c1.49-10.781,1.953-23.018-5.283-31.135c-6.739-7.541-18.401-8.952-28.098-6.073c-9.697,2.867-21.291,11.379-29.261,17.611   c0.226-0.305,0.463-0.61,0.689-0.903c2.54-3.308,5.272-6.469,8.173-9.46h0.011c7.913-8.151,17.114-15.071,27.172-20.365   c4.944-2.596,10.16-4.832,15.635-5.78v-0.011c0.598-0.102,1.185-0.192,1.784-0.26c6.141-0.745,12.666,0.35,17.667,3.974   C336.365,303.925,339.47,311.252,340.226,318.51z"/>
	<path style="fill:#E64337;" d="M259.319,332.441c7.97-6.231,19.564-14.743,29.261-17.611c9.697-2.879,21.358-1.468,28.098,6.073   c7.236,8.117,6.773,20.354,5.283,31.135c-4.109,29.645-12.7,58.386-22.228,86.811c-7.146,4.245-14.698,7.88-22.126,10.657   c0.497-2.969,1.084-6.085,1.716-9.325c0.7-3.579,1.468-7.281,2.28-11.074c0.756-3.556,1.558-7.18,2.359-10.826   c6.875-31.056,14.675-63.737,9.291-68.433c-2.517-2.19-8.388-3.161-17.588,6.649c-25.66,27.375-48.373,54.548-73.14,83.075   c-0.993,1.151-1.987,2.292-3.003,3.443c-1.197,1.377-2.405,2.766-3.612,4.154h-0.011c-1.163,1.332-2.337,2.675-3.522,4.019   c-8.32,9.471-16.933,19.112-26.021,28.967c1.005-5.904,1.93-11.842,2.777-17.802c7.936-7.541,14.766-16.335,21.009-25.366   c8.184-11.842,15.556-24.26,22.036-37.118c10.216-20.241,18.254-41.577,23.91-63.534l23.921-4.798   C259.782,331.831,259.545,332.136,259.319,332.441z"/>
	<path style="fill:#BDB89B;" d="M218.882,308.903c-0.023-3.116-0.237-6.265-1.501-9.099c-1.434-3.206-4.516-5.915-8.026-5.859   c-5.611,0.09-8.704,6.423-10.25,11.819c-2.506,8.828-2.111,13.93-3.883,23.063c-0.011,0.011-0.011,0.011-0.011,0.023   c-0.576,2.992-1.389,6.401-2.619,10.521c0.621-8.433,0.553-16.911-0.203-25.332c-0.034-0.452-0.09-0.903-0.158-1.366   c-0.621-4.64-2.45-9.742-6.909-10.476c-3.251-0.531-6.412,1.818-7.959,4.73c-1.547,2.913-1.84,6.288-2.235,9.562   c-0.418,3.421-0.993,6.931-1.738,10.487l0.034,0.011c-0.056,0.124-0.079,0.192-0.079,0.192v0.305   c-0.045,0.181-0.09,0.373-0.135,0.553c-0.722-2.777-1.682-5.475-2.958-8.072c-4.549-9.302-14.111-16.911-24.429-16.041   c-9.844,0.835-18.096,9.72-24.057,17.611l-0.531,0.237c-1.445-0.937-3.048-1.49-4.82-1.434c-4.222,0.135-7.575,4.03-8.444,8.162   c-0.813,3.929,0.102,7.959,1.31,11.786c-2.766,4.775-5.328,9.663-7.654,14.664l-15.093,2.98L71.958,227.624l70.736-18.333   l1.242,0.316c-1.693,2.969-2.461,6.627-1.309,9.844c1.738,4.832,7.417,6.186,12.553,5.893c5.136-0.305,9.855-1.626,14.405-4.03   c2.608-1.377,5.204-2.754,7.812-4.132c21.065-11.12,42.13-22.262,63.184-33.381l0.384,0.711l42.706-10.905l15.725,70.386   l11.605,51.929v0.011c-5.475,0.948-10.691,3.183-15.635,5.78c-10.058,5.294-19.259,12.215-27.172,20.365h-0.011l-30.073,5.938   c0.858-3.703,1.637-7.428,2.348-11.165c0.124-0.643,0.248-1.276,0.361-1.919c0.553-3.037,1.061-6.209,0.203-9.167   c-0.869-2.958-3.533-5.633-6.615-5.464c-3.962,0.226-6.186,4.538-7.631,8.23c-3.229,8.309-6.288,17.396-9.516,25.705   c1.05-7.981,1.592-16.041,1.637-24.102C218.894,309.728,218.894,309.31,218.882,308.903z"/>
	<path style="fill:#FF564F;" d="M305.107,497.438c-4.414-1.885-9.438-1.332-14.201-0.756c2.642-6.22,5.204-12.485,7.677-18.796   v-0.102l5.656-14.822c4.323-11.808,8.354-23.74,12.09-35.774c-5.057,4.233-10.691,8.162-16.594,11.662   c-2.608,7.812-5.295,15.601-7.981,23.379c-0.022,0.068-0.045,0.125-0.068,0.192c-4.651,13.479-9.246,28.9-13.897,42.356   l-0.135,0.079c0.779,1.275,1.716,2.427,2.8,3.364c8.783,7.642,20.354,5.103,23.345,4.605c2.991-0.497,6.649-2.709,7.71-5.554   C312.783,503.873,309.521,499.335,305.107,497.438z"/>
	<path style="fill:#E64337;" d="M277.607,449.506c7.428-2.777,14.98-6.412,22.126-10.657c-2.608,7.812-5.294,15.601-7.981,23.379   c-0.023,0.068-0.045,0.124-0.068,0.192c-4.651,13.479-9.246,28.899-13.897,42.356l-0.135,0.079   c-1.58-2.551-2.574-5.588-3.025-8.422c-2.145-13.411,0.023-27.138,1.987-40.561C276.896,453.852,277.223,451.719,277.607,449.506z"/>
	<path style="fill:#FF564F;" d="M293.253,349.848c5.385,4.696-2.416,37.377-9.291,68.433l-0.294-0.068   c-23.661,14.788-53.34,23.571-81.144,21.358c24.768-28.527,47.481-55.699,73.14-83.075   C284.866,346.687,290.736,347.658,293.253,349.848z"/>
	<path style="fill:#80A6B0;" d="M283.669,418.213l0.294,0.068c-0.802,3.646-1.603,7.27-2.359,10.826l-0.203-0.045   c-24.519,14.111-54.085,19.225-81.878,13.953c1.016-1.151,2.009-2.292,3.003-3.443   C230.329,441.784,260.008,433.002,283.669,418.213z"/>
	<path style="fill:#E64337;" d="M281.4,429.062l0.203,0.045c-0.813,3.793-1.58,7.496-2.28,11.074l-0.44-0.09   c-26.608,11.966-54.74,14.427-82.973,7.078c1.208-1.389,2.416-2.777,3.612-4.154C227.315,448.287,256.881,443.173,281.4,429.062z"/>
	<path style="fill:#2D9759;" d="M278.883,440.091l0.44,0.09c-0.632,3.24-1.219,6.356-1.716,9.325   c-27.082,9.968-57.268,11.142-84.903,1.976l-0.327-0.293c1.185-1.343,2.359-2.687,3.522-4.019h0.011   C224.143,454.518,252.275,452.057,278.883,440.091z"/>
	<path style="fill:#8D634B;" d="M238.107,328.015l30.073-5.938c-2.901,2.992-5.633,6.152-8.173,9.46l-23.921,4.798   C236.809,333.57,237.475,330.804,238.107,328.015z"/>
	<path style="fill:#2D9759;" d="M205.516,61.226c-5.396-6.085-10.837-12.136-16.279-18.164c0.124-0.011,0.237-0.034,0.361-0.056   c0,0,31.925-2.122,44.636-21.065c12.711-18.931,26.608-12.452,30.356-3.533c0,0.011,0.011,0.011,0.011,0.023   c1.648,8.67-0.011,19.372-3.319,26.438c-4.414,9.449-7.349,14.958-16.651,22.691c-11.04-0.993-22.183-0.903-33.2,0.35   C209.467,65.674,207.503,63.45,205.516,61.226z"/>
	<path style="fill:#62B57F;" d="M261.746,10.584c1.366,2.235,2.292,4.911,2.845,7.823c-3.748-8.918-17.644-15.398-30.356,3.533   c-12.711,18.943-44.636,21.065-44.636,21.065c12.034-2.19,24.937-7.056,31.439-17.024c4.865-7.473,6.502-17.43,13.761-22.589   C243.311-2.646,256.327,1.678,261.746,10.584z"/>
	<path style="fill:#E64337;" d="M241.02,305.765c0.858,2.958,0.35,6.13-0.203,9.167c-0.113,0.643-0.237,1.276-0.361,1.919   l-0.316-0.056c-12.158-9.731-23.56,22.205-23.56,22.205h-0.023c0.26-1.58,0.485-3.172,0.7-4.764   c3.229-8.309,6.288-17.396,9.516-25.705c1.445-3.691,3.669-8.004,7.631-8.23C237.486,300.132,240.151,302.807,241.02,305.765z"/>
	<path style="fill:#FF736B;" d="M216.557,339h0.023c0,0,11.402-31.936,23.56-22.205l0.316,0.056   c-0.711,3.737-1.49,7.462-2.348,11.165c-0.632,2.788-1.298,5.554-2.021,8.32c-5.656,21.957-13.693,43.293-23.91,63.534   l-0.045-0.023c-10.905,13.716-24.486,26.901-39.804,36.395c2.935-28.629,4.053-57.494,3.342-85.942   c-0.192-7.462-0.553-15.104-2.461-22.262c0.045-0.181,0.09-0.373,0.135-0.553v-0.305c0,0,0.023-0.068,0.079-0.192   c0.914-2.088,9.358-20.794,18.164-14.235l0.643-0.079c0.068,0.463,0.124,0.914,0.158,1.366c0.756,8.421,0.824,16.899,0.203,25.332   c1.23-4.12,2.043-7.53,2.619-10.521c0-0.011,0-0.011,0.011-0.023c1.185-2.958,12.192-29.091,23.661-19.925   c0.011,0.406,0.011,0.824,0.011,1.23c-0.045,8.06-0.587,16.12-1.637,24.102C217.042,335.827,216.816,337.419,216.557,339z"/>
	<path style="fill:#E64337;" d="M217.381,299.805c1.264,2.833,1.479,5.983,1.501,9.099c-11.469-9.167-22.476,16.967-23.661,19.925   c1.772-9.133,1.377-14.235,3.883-23.063c1.547-5.396,4.64-11.729,10.25-11.819C212.865,293.889,215.947,296.599,217.381,299.805z"/>
	<path style="fill:#FF564F;" d="M212.132,399.846l0.045,0.023c-6.48,12.858-13.851,25.276-22.036,37.118   c-6.243,9.031-13.072,17.825-21.009,25.366c1.242-8.67,2.303-17.385,3.195-26.111C187.646,426.748,201.227,413.562,212.132,399.846   z"/>
	<path style="fill:#FF736B;" d="M90.404,386.548c1.942,1.219,3.962,2.303,6.051,3.262c8.444,3.861,18.073,5.249,27.251,4.019   c5.385-0.711,10.612-2.326,15.353-4.877c2.326-1.23,4.549-2.709,6.604-4.403c0.056-0.056,0.102-0.113,0.158-0.169   c-2.743,22.95-4.098,43.485-4.177,64.583c-0.305,0.068-0.61,0.135-0.914,0.192c-28.29,5.611-59.966-3.454-81.359-23.865   c-20.907-19.947-31.88-44.027-40.527-71.594c-1.377-17.938-1.039-36.158,1.298-53.182c5.961-43.541,26.563-89.08,53.599-123.726   c1.84,0.869,3.951,1.276,5.994,1.219c4.143-0.124,8.06-1.806,11.853-3.454c26.879-11.707,53.78-23.402,80.659-35.108l0.034,0.09   c-11.255,6.152-22.216,12.677-32.817,19.699c-14.946,9.878-29.182,20.76-42.548,32.963c-3.691,3.364-7.643,9.347-5.622,13.919   c1.118,2.551,3.917,4.064,6.694,4.357c2.777,0.294,5.554-0.429,8.218-1.253c3.183-0.993,6.299-2.134,9.392-3.375v-0.011   c4.786-1.919,9.483-4.075,14.179-6.231c26.484-12.192,52.967-24.373,79.451-36.553c-5.848,3.025-11.594,6.141-17.215,9.404   c-14.709,8.512-28.595,18.017-41.328,29.498c-2.54,2.292-5.057,4.685-6.751,7.654l-1.242-0.316l-70.736,18.333l-5.769,9.968   l13.784,130.059l16.166-3.24l1.219,0.485c-2.709,6.931-4.967,14.021-6.672,21.2L90.404,386.548z"/>
	<path style="fill:#E64337;" d="M192.229,312.674l-0.643,0.079c-8.805-6.559-17.249,12.147-18.164,14.235l-0.034-0.011   c0.745-3.556,1.321-7.067,1.738-10.487c0.395-3.274,0.689-6.649,2.235-9.562c1.547-2.913,4.707-5.261,7.959-4.73   C189.78,302.932,191.609,308.034,192.229,312.674z"/>
	<path style="fill:#E64337;" d="M192.015,172.455l0.011,0.023c-12.463,10.307-19.394,29.148-14.675,44.614l0.045,0.09   c-2.608,1.377-5.204,2.754-7.812,4.132c-4.549,2.405-9.268,3.725-14.405,4.03c-5.136,0.294-10.815-1.061-12.553-5.893   c-1.151-3.217-0.384-6.875,1.309-9.844c1.693-2.969,4.211-5.362,6.751-7.654C163.42,190.472,177.306,180.967,192.015,172.455z"/>
	<path style="fill:#86AEBA;" d="M189.238,43.062c-3.229,0.531-6.48,0.903-9.652,1.151c-11.616,0.937-23.266,1.05-34.928,0.948   l-0.09,0.045c-0.034-0.056-0.068-0.113-0.09-0.181c-3.782-8.196-6.412-16.922-7.733-25.851c-0.519-3.511-0.824-7.157,0.124-10.578   c0.96-3.421,3.421-6.615,6.841-7.552c5.712-1.558,10.984,3.341,14.901,7.789C168.749,20.383,178.999,31.706,189.238,43.062z"/>
	<path style="fill:#DB968E;" d="M166.355,480.155c-0.937,5.498-1.942,10.973-3.014,16.414c7.033-1.84,14.088-1.795,16.425,6.367   c0.993,3.5-1.219,9.934-13.818,10.228c-18.762,0.44-22.115-10.115-22.307-13.219c-0.124-1.682-0.248-3.353-0.361-5.012   c-0.361-5.125-0.666-10.126-0.903-15.025c-0.531-10.657-0.779-20.862-0.734-30.943c10.77-2.258,21.076-6.762,30.683-12.723   c-0.892,8.726-1.953,17.441-3.195,26.111C168.286,468.313,167.36,474.251,166.355,480.155z"/>
	<path style="fill:#E64337;" d="M175.669,350.3c0.711,28.448-0.406,57.313-3.342,85.942c-9.607,5.961-19.914,10.465-30.683,12.723   c0.079-21.099,1.434-41.633,4.177-64.583c12.564-13.106,22.702-36.271,27.387-56.343   C175.115,335.195,175.477,342.838,175.669,350.3z"/>
	<path style="fill:#FF736B;" d="M170.25,319.967c1.276,2.596,2.235,5.294,2.958,8.072c-4.685,20.072-14.822,43.236-27.387,56.343   c0.327-2.743,0.666-5.52,1.039-8.342c0.655-5.012,1.072-13.287,1.072-18.333c0-6.062-3.962-12.881-8.23-9.765l-0.124,0.09   c-4.324-6.186-8.094-13.163-11.831-18.954c-1.761-2.709-3.883-5.622-6.514-7.304l0.531-0.237   c5.961-7.891,14.213-16.775,24.057-17.611C156.139,303.056,165.701,310.665,170.25,319.967z"/>
	<path style="fill:#FF564F;" d="M147.932,357.705c0,5.046-0.418,13.321-1.072,18.333c-0.373,2.822-0.711,5.599-1.039,8.342   c-0.056,0.056-0.102,0.113-0.158,0.169c-2.055,1.693-4.278,3.172-6.604,4.403l-0.361-0.7c-4.041-3.962-7.778-8.218-11.187-12.723   c-7.891-10.408-14.032-22.16-18.028-34.6c-0.068-0.215-0.135-0.429-0.203-0.643c-1.208-3.827-2.122-7.857-1.31-11.786   c0.869-4.132,4.222-8.026,8.444-8.162c1.772-0.056,3.375,0.497,4.82,1.434c2.63,1.682,4.753,4.595,6.514,7.304   c3.737,5.791,7.507,12.768,11.831,18.954C142.141,351.666,144.884,355.018,147.932,357.705z"/>
	<path style="fill:#E64337;" d="M117.667,74.163c0.192-0.271,0.361-0.553,0.519-0.835c1.659-2.98,2.382-6.446,2.156-9.844   c-0.147-2.179-0.677-4.324-1.603-6.288c-0.564-1.197-1.242-2.427-2.371-3.116c-2.54-1.558-4.798-0.113-5.52,2.371   c-0.406,1.366-0.655,2.777-0.79,4.199c-0.079,0.745-0.158,1.501-0.226,2.246c-0.237,1.501-0.271,2.675-0.271,2.675   c-0.102,0.971-0.192,1.942-0.294,2.913c-0.169,1.693-0.339,3.421,0.124,5.046c0.463,1.626,1.705,3.15,3.375,3.432   C114.743,77.29,116.493,75.868,117.667,74.163z M144.568,45.207c5.125,11.086,12.35,21.2,21.268,29.554   c-26.247,5.836-51.567,15.703-75.139,28.73l-0.226-0.418c0.305-2.732,0.09-5.52-0.632-8.162c-0.192-0.632-0.948-1.106-1.885-1.434   c-1.084-0.395-2.427-0.61-3.443-0.711c-1.908-0.181-4.041,0.643-4.809,2.393c-0.61,1.4-0.214,3.082,0.643,4.346   c0.824,1.219,1.998,2.145,3.172,3.014l-0.158,0.203c-1.343-0.384-2.913,0.294-3.533,1.547c-0.666,1.321,0.474,3.691,1.738,4.459   v0.011c-2.382,1.422-4.73,2.867-7.067,4.357c-0.181,0-0.35,0-0.531,0.011v-0.181c-8.896-0.847-21.189-3.409-27.454-8.489   c-6.265-5.08-11.718-12.147-10.115-20.049c1.118-5.498,4.854-13.468,8.873-17.374c12.384-12.023,27.658-19.473,44.783-21.573   c3.003-0.192,6.017-0.339,9.008-0.429c14.574-0.474,30.457,0.023,45.042,0.181l0.373-0.169   C144.5,45.094,144.534,45.151,144.568,45.207z M97.245,57.185c0.102-1.422-0.7-2.833-1.897-3.556   c-0.271-0.158-0.553-0.282-0.847-0.373c-1.659-0.485-3.612,0.327-4.425,1.851c-0.824,1.524-0.452,3.59,0.869,4.719   c-1.174-0.802-2.687-1.208-3.883-1.061c-1.208,0.135-2.303,0.982-2.732,2.122c-0.531,1.4-0.011,2.992,0.869,4.211   c0.802,1.118,1.569,2.032,3.432,2.856c-2.055-0.813-4.132-0.531-5.159,0.914c-1.027,1.445-0.892,3.466-0.113,5.046   c0.779,1.592,2.088,2.845,3.375,4.064c0.858,0.813,1.75,1.648,2.834,2.134c1.095,0.474,2.438,0.542,3.409-0.147   c1.197-0.835,1.468-2.461,1.637-3.917C95.405,69.354,96.455,63.879,97.245,57.185z"/>
	<path style="fill:#E64337;" d="M143.281,494.932l-0.463,0.034c-2.901,1.095-5.227,1.648-7.699,1.987   c-10.95,1.524-20.026-2.179-24.429-11.12l0.011-0.463c10.645,0.248,21.358-1.592,31.281-5.441l0.395-0.023   C142.615,484.806,142.92,489.807,143.281,494.932z"/>
	<path style="fill:#FF564F;" d="M142.378,479.907l-0.395,0.023c-9.923,3.849-20.636,5.69-31.281,5.441   c-1.614-0.034-3.217-0.124-4.82-0.26c-6.48-0.542-12.892-1.885-19.033-4.019c-14.89-5.182-27.68-16.358-37.479-29.611   c-5.08-6.852-9.347-14.269-12.689-21.708c-9.415-20.941-15.703-48.158-17.836-76.076c8.647,27.567,19.62,51.646,40.527,71.594   c21.392,20.41,53.069,29.475,81.359,23.865c0.305-0.056,0.61-0.124,0.914-0.192C141.599,459.045,141.847,469.25,142.378,479.907z"/>
	<path style="fill:#FF736B;" d="M139.702,347.94c4.267-3.116,8.23,3.703,8.23,9.765c-3.048-2.687-5.791-6.04-8.354-9.675   L139.702,347.94z"/>
	<path style="fill:#E64337;" d="M138.698,388.253l0.361,0.7c-4.741,2.551-9.968,4.166-15.353,4.877l-0.09-0.655   c0.564-4.922,2.596-12.643,3.895-17.644C130.92,380.034,134.656,384.29,138.698,388.253z"/>
	<path style="fill:#E64337;" d="M96.918,192.199c13.366-12.203,27.601-23.086,42.548-32.963   c-12.723,10.894-22.849,29.87-23.865,46.6v0.011c-3.093,1.242-6.209,2.382-9.392,3.375c-2.664,0.824-5.441,1.547-8.218,1.253   c-2.777-0.294-5.577-1.806-6.694-4.357C89.275,201.547,93.226,195.563,96.918,192.199z"/>
	<path style="fill:#FF564F;" d="M127.51,375.53c-1.298,5.001-3.33,12.723-3.895,17.644l0.09,0.655   c-9.178,1.23-18.807-0.158-27.251-4.019c-2.088-0.96-4.109-2.043-6.051-3.262l0.282-0.452c1.705-7.18,3.962-14.269,6.672-21.2   c1.31-3.353,2.743-6.672,4.267-9.945c2.326-5.001,4.888-9.889,7.654-14.664c0.068,0.214,0.135,0.429,0.203,0.643   C113.478,353.37,119.62,365.122,127.51,375.53z"/>
	<path style="fill:#2D9759;" d="M122.272,126.995l0.226,0.429c-0.395,4.922-4.346,8.704-8.026,11.989   c-14.755,13.152-28.391,21.121-40.73,37.377c-1.908-0.892-3.522-2.292-4.459-4.177c-1.626-3.308-0.813-7.394,1.163-10.499   c1.976-3.116,4.956-5.43,7.902-7.62C92.233,144.188,106.908,134.92,122.272,126.995z"/>
	<path style="fill:#2D9759;" d="M121.787,122.908c-18.051,5.678-36.102,11.357-54.153,17.035c-2.958,0.926-5.994,1.874-9.076,1.637   c-3.082-0.226-6.254-1.908-7.338-4.798c-0.903-2.427-0.158-5.227,1.31-7.36c1.468-2.134,3.579-3.725,5.678-5.249   c5.306-3.861,10.736-7.552,16.29-11.074c7.936-0.169,15.872-0.282,23.808-0.226c5.317,0.034,10.803,0.113,15.669,2.269   C117.396,116.666,120.432,119.511,121.787,122.908z"/>
	<path style="fill:#82CABE;" d="M117.667,74.163c-1.174,1.705-2.924,3.127-4.899,2.8c-1.671-0.282-2.913-1.806-3.375-3.432   c-0.463-1.626-0.294-3.353-0.124-5.046c0.102-0.971,0.192-1.942,0.294-2.913c0.09-0.892,0.181-1.784,0.271-2.675   c0.418-2.687,1.524-6.423,4.335-6.423c4.403,0,6.175,7.01,6.175,7.01c0.226,3.398-0.497,6.864-2.156,9.844   C118.028,73.61,117.858,73.892,117.667,74.163z M117.757,65.866c0-0.993-0.802-1.795-1.795-1.795c-0.993,0-1.795,0.802-1.795,1.795   c0,0.993,0.802,1.795,1.795,1.795C116.955,67.661,117.757,66.859,117.757,65.866z"/>
	<path style="fill:#CDE8E3;" d="M118.739,57.196c0.926,1.964,1.456,4.109,1.603,6.288c0,0-1.772-7.01-6.175-7.01   c-2.811,0-3.917,3.737-4.335,6.423c0.068-0.745,0.147-1.501,0.226-2.246c0.135-1.422,0.384-2.833,0.79-4.199   c0.722-2.484,2.98-3.929,5.52-2.371C117.497,54.769,118.175,55.999,118.739,57.196z"/>
	<circle cx="115.962" cy="65.866" r="1.795"/>
	<path style="fill:#E64337;" d="M109.832,62.897c-0.09,0.892-0.181,1.784-0.271,2.675C109.561,65.572,109.595,64.398,109.832,62.897   z"/>
	<path style="fill:#8D634B;" d="M86.532,357.931l15.093-2.98c-1.524,3.274-2.958,6.593-4.267,9.945l-1.219-0.485l-16.166,3.24   L66.189,237.592l5.769-9.968L86.532,357.931z"/>
	<path style="fill:#FF9B19;" d="M95.349,53.629c1.197,0.722,1.998,2.134,1.897,3.556c-0.79,6.694-1.84,12.169-2.63,18.864   c-0.169,1.456-0.44,3.082-1.637,3.917c-0.971,0.689-2.314,0.621-3.409,0.147c1.456-6.378,2.834-13.118,4.256-19.676   c0.474-2.179,0.948-4.346,1.434-6.469L95.349,53.629z"/>
	<path style="fill:#FF9B19;" d="M95.349,53.629l-0.09,0.339c-0.485,2.122-0.96,4.29-1.434,6.469l-2.879-0.61   c-1.321-1.129-1.693-3.195-0.869-4.719c0.813-1.524,2.766-2.337,4.425-1.851C94.795,53.347,95.078,53.471,95.349,53.629z"/>
	<path style="fill:#FF9B19;" d="M90.946,59.826l2.879,0.61c-1.422,6.559-2.8,13.298-4.256,19.676   c-1.084-0.485-1.976-1.321-2.834-2.134c-1.287-1.219-2.596-2.472-3.375-4.064c-0.779-1.58-0.914-3.601,0.113-5.046   c1.027-1.445,3.104-1.727,5.159-0.914c-1.863-0.824-2.63-1.738-3.432-2.856c-0.881-1.219-1.4-2.811-0.869-4.211   c0.429-1.14,1.524-1.987,2.732-2.122C88.259,58.618,89.772,59.025,90.946,59.826z"/>
	<path style="fill:#FF9B19;" d="M90.472,103.074l0.226,0.418c-1.151,0.632-2.292,1.264-3.421,1.919l-0.079-0.135   c0.237-3.714,0.519-8.083,0.756-11.797c0.937,0.327,1.693,0.802,1.885,1.434C90.562,97.554,90.777,100.342,90.472,103.074z"/>
	<path style="fill:#E64337;" d="M86.848,481.092c6.141,2.134,12.553,3.477,19.033,4.019c-10.024,12.61-23.12,14.45-37.377,6.954   c-14.269-7.496-23.831-25.174-19.135-40.583C59.168,464.735,71.958,475.911,86.848,481.092z"/>
	<path style="fill:#FF9B19;" d="M83.518,102.521c-1.174-0.869-2.348-1.795-3.172-3.014c-0.858-1.264-1.253-2.946-0.643-4.346   c0.768-1.75,2.901-2.574,4.809-2.393c1.016,0.102,2.359,0.316,3.443,0.711c-0.237,3.714-0.519,8.083-0.756,11.797l0.079,0.135   c-1.919,1.084-3.827,2.19-5.712,3.33v-0.011c-1.264-0.768-2.405-3.138-1.738-4.459c0.621-1.253,2.19-1.93,3.533-1.547   L83.518,102.521z"/>
	<path style="fill:#FF564F;" d="M73.888,47.002c5.362-0.722,10.77-1.23,16.166-1.558c-17.125,2.1-32.399,9.55-44.783,21.573   c-4.019,3.906-7.755,11.876-8.873,17.374c-1.603,7.902,3.849,14.969,10.115,20.049c6.265,5.08,18.559,7.643,27.454,8.489v0.181   c-5.035,0.09-10.058,0.203-15.093,0.294c-0.011,0-0.023,0-0.023,0c-7.078-1.072-18.22-2.484-24.553-5.814   c-6.344-3.33-10.612-10.476-11.244-17.611c-0.7-8.015,4.572-15.319,10.397-20.862c10.024-9.539,26.98-18.751,40.414-22.115   C73.877,47.002,73.877,47.002,73.888,47.002z"/>
	<path style="fill:#FF736B;" d="M59.879,49.407c4.617-0.993,9.291-1.784,13.987-2.405c-13.434,3.364-30.39,12.576-40.414,22.115   c-5.825,5.543-11.097,12.847-10.397,20.862c0.632,7.135,4.899,14.28,11.244,17.611c6.333,3.33,17.475,4.741,24.553,5.814   c-4.877,0.09-9.754,0.158-14.63,0.158c-8.986-0.361-23.436-5.419-28.674-11.481c-5.667-6.57-5.238-15.364-1.456-23.165   c2.405-4.956,6.728-9.833,11.232-13.005c8.659-6.107,24.158-13.84,34.454-16.482C59.811,49.418,59.845,49.418,59.879,49.407z"/>
	<path style="fill:#DB968E;" d="M21.666,63.913c11.763-7.044,24.689-11.605,38.111-14.484   c-10.295,2.642-25.795,10.374-34.454,16.482c-4.504,3.172-8.828,8.049-11.232,13.005c-3.782,7.801-4.211,16.595,1.456,23.165   c5.238,6.062,19.688,11.12,28.674,11.481c-1.942,0.023-3.895,0.011-5.836,0c-6.683-0.045-28.538,0.497-35.368-10.826   c-4.29-7.101-2.969-17.249,2.992-24.858C11.834,70.449,15.615,67.537,21.666,63.913z"/>
	<path d="M165.836,75.512c-0.184,0-0.368-0.067-0.512-0.203c-8.845-8.285-16.258-18.585-21.436-29.787   c-0.006,0-0.071-0.11-0.121-0.257c-3.818-8.263-6.44-17.03-7.764-25.981c-0.495-3.344-0.864-7.252,0.144-10.888   c1.135-4.048,3.958-7.142,7.365-8.075c6.15-1.675,11.6,3.404,15.662,8.017c8.958,10.204,18.156,20.403,27.053,30.265l3.568,3.956   c4.814,5.333,10.513,11.662,16.282,18.168c1.987,2.223,3.952,4.449,5.918,6.686c0.273,0.311,0.243,0.785-0.068,1.059   c-0.312,0.273-0.785,0.243-1.059-0.068c-1.963-2.234-3.926-4.456-5.911-6.678c-5.768-6.504-11.464-12.83-16.276-18.161   l-3.568-3.956c-8.9-9.866-18.102-20.068-27.065-30.279c-3.774-4.286-8.794-9.019-14.14-7.561c-3.469,0.95-5.538,4.255-6.316,7.031   c-0.93,3.354-0.6,6.916-0.104,10.265c1.303,8.809,3.884,17.438,7.672,25.647c0.014,0.023,0.079,0.156,0.09,0.18   c5.099,11.028,12.395,21.167,21.1,29.322c0.302,0.283,0.318,0.758,0.035,1.06C166.236,75.432,166.036,75.512,165.836,75.512z"/>
	<path d="M59.539,142.367c-0.345,0-0.691-0.013-1.038-0.039c-3.748-0.275-6.882-2.348-7.982-5.282   c-0.911-2.448-0.39-5.456,1.394-8.049c1.498-2.178,3.625-3.812,5.855-5.431c5.296-3.853,10.79-7.588,16.329-11.101   c2.282-1.455,4.6-2.885,7.084-4.368c1.757-1.063,3.632-2.156,5.728-3.339c1.126-0.653,2.271-1.288,3.428-1.924   c24.211-13.381,49.559-23.073,75.337-28.805c0.405-0.089,0.805,0.165,0.895,0.569c0.09,0.404-0.165,0.805-0.569,0.895   c-25.638,5.701-50.852,15.342-74.939,28.654c-1.148,0.63-2.283,1.26-3.407,1.911c-2.09,1.18-3.952,2.266-5.7,3.323   c-2.475,1.478-4.781,2.9-7.052,4.348c-5.514,3.496-10.981,7.213-16.252,11.048c-2.203,1.599-4.136,3.083-5.501,5.068   c-1.507,2.19-1.964,4.685-1.225,6.674c1.018,2.714,4.093,4.121,6.689,4.311c2.948,0.226,5.921-0.704,8.798-1.605l54.152-17.034   c7.559-2.381,15.117-4.759,22.679-7.137l14.958-4.705c0.395-0.124,0.816,0.095,0.94,0.49c0.125,0.395-0.095,0.816-0.49,0.94   l-14.958,4.706c-7.561,2.378-15.12,4.755-22.678,7.136L67.86,140.659C65.171,141.5,62.401,142.367,59.539,142.367z"/>
	<path d="M79.353,178.765c-2.088,0-4.13-0.446-5.932-1.296c-2.184-1.021-3.848-2.585-4.81-4.521   c-1.599-3.254-1.138-7.558,1.201-11.235c2.002-3.158,4.969-5.501,8.088-7.819c14.223-10.557,29.036-19.831,44.029-27.564   c12.29-6.33,24.823-11.704,37.252-15.971c0.392-0.134,0.819,0.074,0.953,0.466c0.135,0.392-0.074,0.819-0.466,0.953   c-12.36,4.244-24.826,9.589-37.052,15.886c-14.92,7.696-29.664,16.926-43.821,27.435c-3.001,2.231-5.85,4.477-7.716,7.419   c-1.616,2.539-2.759,6.438-1.123,9.766c0.808,1.627,2.228,2.951,4.104,3.828c1.684,0.795,3.691,1.2,5.656,1.149   c4.046-0.121,7.874-1.784,11.575-3.393c13.439-5.853,26.884-11.703,40.329-17.554c13.439-5.848,26.88-11.696,40.313-17.547   c0.481-0.238,1.088,0.139,1.088,0.669c0,0.301-0.177,0.56-0.432,0.68c-0.013,0.007-0.027,0.013-0.041,0.019l0,0   c-13.439,5.854-26.885,11.704-40.33,17.554c-13.445,5.85-26.89,11.701-40.329,17.554c-3.654,1.588-7.794,3.386-12.13,3.517   C79.623,178.763,79.488,178.765,79.353,178.765z"/>
	<path d="M115.601,206.587c-0.297,0-0.579-0.178-0.696-0.471c-0.154-0.384,0.032-0.821,0.417-0.975   c4.771-1.913,9.537-4.101,14.145-6.217c26.483-12.192,52.967-24.372,79.45-36.553c0.376-0.173,0.822-0.008,0.995,0.368   c0.173,0.376,0.008,0.822-0.368,0.995c-26.484,12.181-52.967,24.361-79.451,36.553c-4.625,2.124-9.407,4.32-14.213,6.246   C115.789,206.569,115.694,206.587,115.601,206.587z"/>
	<path d="M99.282,211.292c-0.455,0-0.913-0.022-1.371-0.071c-3.363-0.355-6.161-2.196-7.302-4.802   c-2.359-5.337,2.538-11.798,5.804-14.774c12.959-11.832,26.907-22.637,42.639-33.035c10.248-6.788,21-13.243,32.87-19.731   c0.364-0.198,0.819-0.065,1.018,0.299c0.198,0.363,0.065,0.819-0.298,1.018c-11.833,6.468-22.549,12.901-32.762,19.666   c-15.667,10.354-29.554,21.113-42.456,32.892c-3.851,3.509-7.196,9.093-5.441,13.062c0.913,2.085,3.302,3.621,6.087,3.915   c2.723,0.289,5.515-0.481,7.918-1.224c2.955-0.922,6.009-2.02,9.334-3.355c0.385-0.154,0.821,0.032,0.976,0.417   c0.154,0.385-0.032,0.821-0.417,0.976c-3.363,1.35-6.453,2.461-9.448,3.396C104.273,210.607,101.813,211.292,99.282,211.292z"/>
	<path d="M153.828,226.133c-6.039,0-10.44-2.351-11.907-6.428c-1.129-3.155-0.632-6.97,1.364-10.469   c1.75-3.069,4.368-5.555,6.9-7.839c11.672-10.523,25.232-20.202,41.455-29.59c5.32-3.087,10.962-6.169,17.247-9.42   c0.369-0.191,0.821-0.046,1.011,0.321c0.19,0.368,0.047,0.821-0.321,1.011c-6.263,3.24-11.884,6.311-17.184,9.386   c-16.133,9.335-29.61,18.954-41.203,29.406c-2.542,2.293-4.96,4.59-6.602,7.468c-1.778,3.118-2.236,6.479-1.255,9.219   c1.986,5.52,9.535,5.526,11.804,5.397c5.028-0.298,9.64-1.588,14.097-3.944l7.812-4.132c12.221-6.451,24.441-12.909,36.659-19.366   l26.524-14.015c1.266-0.672,2.536-1.342,3.805-2.012c1.287-0.679,2.574-1.358,3.858-2.04c0.365-0.195,0.82-0.055,1.014,0.311   c0.194,0.366,0.055,0.82-0.311,1.014c-1.285,0.683-2.574,1.362-3.862,2.042c-1.269,0.669-2.537,1.339-3.803,2.011l-26.526,14.015   c-12.219,6.457-24.439,12.916-36.66,19.367l-7.812,4.132c-4.65,2.458-9.462,3.804-14.71,4.116   C154.75,226.119,154.284,226.132,153.828,226.133z"/>
	<path d="M244.633,67.934c-0.108,0-0.214-0.046-0.289-0.135c-0.132-0.159-0.111-0.396,0.049-0.528   c9.372-7.792,12.258-13.371,16.551-22.561c3.519-7.519,4.842-18.052,3.291-26.21c-0.039-0.204,0.095-0.4,0.298-0.438   c0.204-0.039,0.4,0.095,0.438,0.298c1.578,8.301,0.233,19.018-3.348,26.667c-4.338,9.287-7.255,14.926-16.751,22.82   C244.802,67.906,244.717,67.934,244.633,67.934z"/>
	<path d="M189.599,43.381c-0.178,0-0.335-0.127-0.368-0.308c-0.037-0.204,0.098-0.399,0.302-0.436   c10.454-1.902,24.351-6.372,31.193-16.859c1.727-2.654,3.069-5.679,4.366-8.606c2.336-5.268,4.751-10.715,9.491-14.084   C238.255,0.482,243-0.39,247.945,0.63c5.861,1.21,11.14,4.858,14.122,9.759c1.332,2.179,2.305,4.854,2.893,7.948   c0.039,0.204-0.095,0.4-0.298,0.438c-0.204,0.038-0.4-0.095-0.438-0.298c-0.571-3.005-1.511-5.595-2.796-7.698   c-2.876-4.727-7.972-8.247-13.633-9.415c-4.738-0.978-9.276-0.149-12.777,2.334c-4.573,3.25-6.84,8.363-9.24,13.777   c-1.309,2.953-2.663,6.007-4.424,8.711c-6.987,10.712-21.088,15.259-31.687,17.188C189.644,43.379,189.621,43.381,189.599,43.381z"/>
	<path d="M264.602,18.805c-0.15,0-0.28-0.088-0.34-0.216c-0.03-0.056-0.047-0.12-0.047-0.181c0-0.207,0.168-0.375,0.375-0.375   c0.15,0,0.28,0.088,0.34,0.216c0.03,0.057,0.047,0.121,0.047,0.182C264.977,18.637,264.809,18.805,264.602,18.805z M264.966,18.408   h0.009H264.966z"/>
	<path d="M73.888,47.502c-0.246,0-0.461-0.182-0.495-0.433c-0.037-0.274,0.155-0.526,0.429-0.563   c5.18-0.698,10.631-1.223,16.202-1.561c3.093-0.198,6.13-0.342,9.024-0.43c10.936-0.355,22.612-0.166,33.904,0.019   c3.774,0.062,7.507,0.122,11.159,0.162c0.276,0.003,0.498,0.229,0.495,0.505s-0.223,0.498-0.505,0.495   c-3.654-0.04-7.389-0.101-11.165-0.162c-11.28-0.184-22.944-0.374-33.856-0.019c-2.884,0.087-5.909,0.231-8.993,0.428   c-5.548,0.337-10.975,0.86-16.131,1.554C73.933,47.501,73.91,47.502,73.888,47.502z"/>
	<path d="M59.878,49.907c-0.23,0-0.438-0.16-0.488-0.395c-0.058-0.27,0.114-0.536,0.384-0.594c4.456-0.959,9.176-1.77,14.027-2.411   c0.273-0.035,0.525,0.156,0.561,0.43c0.036,0.274-0.156,0.525-0.43,0.561c-4.825,0.638-9.517,1.445-13.947,2.398   C59.949,49.903,59.913,49.907,59.878,49.907z"/>
	<path d="M41.756,114.074c-1.125,0-2.251-0.006-3.374-0.013l-1.099-0.004c-7.674-0.017-28.057-0.061-34.694-11.064   c-4.33-7.167-3.086-17.623,3.026-25.425c5.852-7.463,9.602-10.376,15.794-14.085c11.094-6.644,23.61-11.401,38.263-14.543   c0.271-0.058,0.536,0.114,0.594,0.384c0.058,0.27-0.114,0.536-0.384,0.594c-14.544,3.119-26.96,7.837-37.959,14.424   c-6.082,3.643-9.767,6.506-15.521,13.844c-5.861,7.482-7.077,17.471-2.957,24.291c6.346,10.521,26.321,10.564,33.84,10.581   l1.103,0.004c1.938,0.011,3.888,0.022,5.827,0c4.214,0,8.723-0.049,14.627-0.158c0.271,0.011,0.504,0.215,0.509,0.491   s-0.215,0.504-0.491,0.509c-5.91,0.109-10.425,0.158-14.64,0.158C43.402,114.071,42.579,114.074,41.756,114.074z"/>
	<path d="M121.787,123.409c-0.199,0-0.387-0.119-0.465-0.315c-1.254-3.146-4.077-5.948-7.551-7.495   c-4.87-2.158-10.501-2.194-15.469-2.226c-6.861-0.049-14.199,0.021-23.794,0.226c-0.181,0-0.34,0-0.51,0.01   c-2.539,0.046-5.053,0.097-7.568,0.148c-2.515,0.051-5.03,0.102-7.548,0.147c-0.279,0.001-0.504-0.215-0.509-0.491   s0.215-0.504,0.491-0.509c2.517-0.045,5.031-0.096,7.546-0.147c2.515-0.051,5.03-0.102,7.548-0.147   c0.169-0.011,0.348-0.011,0.54-0.011c9.595-0.205,16.941-0.275,23.812-0.226c5.065,0.032,10.807,0.069,15.868,2.312   c3.708,1.652,6.725,4.657,8.074,8.039c0.102,0.256-0.023,0.547-0.279,0.649C121.912,123.397,121.849,123.409,121.787,123.409z"/>
	<path d="M73.742,176.915c-0.026,0-0.053-0.008-0.076-0.025c-0.055-0.042-0.066-0.12-0.024-0.175   c8.461-11.148,17.538-18.407,27.147-26.093c4.402-3.521,8.954-7.162,13.599-11.302c3.831-3.42,7.604-7.156,7.985-11.906   c0.005-0.069,0.065-0.119,0.135-0.115c0.069,0.005,0.12,0.066,0.115,0.135c-0.389,4.842-4.199,8.619-8.068,12.072   c-4.65,4.145-9.205,7.788-13.61,11.311c-9.597,7.676-18.662,14.926-27.104,26.049C73.817,176.898,73.779,176.915,73.742,176.915z"/>
	<path d="M205.516,61.351c-0.063,0-0.118-0.048-0.124-0.113c-0.007-0.069,0.044-0.13,0.113-0.136   c18.579-1.782,36.062-16.301,40.667-33.774c0.017-0.067,0.086-0.107,0.153-0.089c0.067,0.018,0.107,0.086,0.089,0.153   c-2.277,8.642-7.701,16.833-15.273,23.064c-7.485,6.159-16.58,10.029-25.611,10.895C205.524,61.351,205.52,61.351,205.516,61.351z"/>
	<path d="M387.244,182.056c-0.317,0-0.611-0.202-0.714-0.52c-8.009-24.83-22.181-47.804-40.984-66.437   c-0.294-0.292-0.296-0.766-0.005-1.061c0.292-0.294,0.766-0.297,1.061-0.005c18.973,18.802,33.274,41.984,41.356,67.042   c0.127,0.394-0.089,0.817-0.483,0.944C387.398,182.044,387.32,182.056,387.244,182.056z"/>
	<path d="M346.062,115.293c-0.191,0-0.382-0.073-0.529-0.218c-8.074-8.018-16.944-15.159-26.361-21.226   c-22.146-14.285-47.945-23.117-74.608-25.543c-11.108-0.999-22.228-0.882-33.048,0.348c-0.411,0.048-0.783-0.249-0.83-0.66   c-0.047-0.412,0.249-0.783,0.66-0.83c10.921-1.242,22.143-1.361,33.353-0.352c26.904,2.448,52.938,11.361,75.286,25.776   c9.505,6.123,18.457,13.331,26.606,21.423c0.294,0.292,0.295,0.767,0.004,1.061C346.448,115.219,346.255,115.293,346.062,115.293z"/>
	<path d="M316.429,427.609c-0.144,0-0.287-0.062-0.386-0.182c-0.176-0.213-0.145-0.528,0.068-0.704   c33.763-27.785,58.604-66.79,71.838-112.799c13.029-45.287,12.621-91.092-1.179-132.46c-0.087-0.262,0.054-0.545,0.316-0.633   c0.262-0.086,0.545,0.054,0.632,0.316c13.865,41.562,14.277,87.571,1.192,133.053c-13.29,46.204-38.243,85.381-72.163,113.294   C316.654,427.572,316.541,427.609,316.429,427.609z"/>
	<path d="M327.368,388.423c-0.025,0-0.051-0.008-0.073-0.023c-0.056-0.04-0.069-0.118-0.029-0.174   c20.209-28.312,33.981-58.377,43.341-94.616c9.296-36.054,8.151-64.543-3.5-87.095c-3.605-6.964-8.311-13.349-13.987-18.979   c-10.614-10.557-24.318-18.022-38.59-21.02c-21.283-4.47-40.469-0.604-66.226,13.342c-0.061,0.033-0.137,0.011-0.169-0.05   c-0.033-0.061-0.01-0.137,0.05-0.169c13.032-7.057,23.886-11.347,34.159-13.501c10.786-2.262,21.03-2.22,32.237,0.134   c14.319,3.008,28.068,10.497,38.715,21.087c5.694,5.648,10.415,12.054,14.032,19.042c6.314,12.221,9.57,26.608,9.677,42.76   c0.089,13.35-1.982,28.326-6.156,44.513c-9.368,36.27-23.152,66.361-43.38,94.698C327.446,388.405,327.407,388.423,327.368,388.423   z"/>
	<path d="M300.535,243.858c-0.05,0-0.097-0.03-0.116-0.079c-0.025-0.064,0.007-0.137,0.071-0.162   c23.648-9.254,42.907-29.057,51.518-52.972c0.403-1.126,0.757-2.184,1.082-3.234c7.282-23.265,4.486-51.834-7.125-72.783   c-0.033-0.06-0.012-0.136,0.049-0.17c0.06-0.033,0.136-0.012,0.17,0.049c5.77,10.412,9.483,22.759,10.737,35.706   c1.248,12.889,0.006,25.778-3.592,37.273c-0.326,1.053-0.681,2.115-1.085,3.245c-8.635,23.982-27.948,43.841-51.662,53.121   C300.565,243.855,300.55,243.858,300.535,243.858z"/>
	<path d="M346.074,115.316c-0.301,0-0.56-0.177-0.679-0.432c-0.052-0.106-0.082-0.224-0.082-0.341c0-0.414,0.336-0.75,0.75-0.75   c0.301,0,0.561,0.177,0.68,0.433c0.052,0.106,0.081,0.223,0.081,0.34C346.824,114.98,346.488,115.316,346.074,115.316z    M346.812,114.543h0.01H346.812z"/>
	<path d="M290.905,497.432c-0.098,0-0.197-0.019-0.293-0.06c-0.381-0.162-0.559-0.602-0.397-0.984   c2.675-6.298,5.255-12.615,7.668-18.777c1.98-5.349,5.617-14.824,5.654-14.919c4.279-11.687,8.343-23.711,12.074-35.728   c3.928-12.579,7.635-25.651,11.019-38.854c4.065-15.779,7.731-31.941,10.896-48.038c1.501-7.612,2.684-14.483,1.954-21.486   c-0.822-7.89-4.274-14.577-9.47-18.345c-4.509-3.267-10.594-4.629-17.136-3.836c-0.591,0.067-1.164,0.155-1.749,0.254   c-0.407,0.067-0.795-0.205-0.865-0.614c-0.069-0.408,0.206-0.796,0.614-0.865c0.612-0.104,1.213-0.196,1.825-0.265   c6.911-0.839,13.375,0.621,18.191,4.112c5.541,4.018,9.216,11.091,10.082,19.405c0.75,7.201-0.506,14.483-1.974,21.931   c-3.171,16.125-6.843,32.315-10.915,48.121c-3.39,13.227-7.104,26.324-11.04,38.927c-3.738,12.04-7.81,24.088-12.102,35.808   c-0.041,0.106-3.675,9.573-5.657,14.927c-2.424,6.188-5.009,12.518-7.689,18.829C291.474,497.261,291.197,497.432,290.905,497.432z   "/>
	<path d="M268.192,322.827c-0.188,0-0.377-0.07-0.522-0.212c-0.297-0.289-0.304-0.763-0.016-1.061   c8.043-8.284,17.249-15.184,27.361-20.506c6.027-3.165,11.065-5.025,15.856-5.855c0.407-0.071,0.796,0.203,0.867,0.611   c0.071,0.408-0.203,0.796-0.611,0.867c-4.632,0.802-9.53,2.615-15.414,5.705c-9.971,5.249-19.05,12.053-26.983,20.223   C268.583,322.751,268.388,322.827,268.192,322.827z"/>
	<path d="M259.319,333.191c-0.155,0-0.311-0.048-0.446-0.147c-0.333-0.246-0.403-0.716-0.157-1.049   c0.182-0.247,0.372-0.493,0.558-0.734l0.139-0.18c2.544-3.313,5.313-6.518,8.229-9.525c0.288-0.297,0.763-0.304,1.061-0.016   s0.304,0.763,0.016,1.061c-2.876,2.966-5.607,6.127-8.117,9.395l-0.14,0.182c-0.179,0.233-0.363,0.471-0.54,0.71   C259.775,333.086,259.548,333.191,259.319,333.191z"/>
	<path d="M251.856,344.536c-0.126,0-0.254-0.032-0.372-0.099c-0.36-0.206-0.484-0.664-0.279-1.023   c2.251-3.937,4.775-7.776,7.501-11.412c0.249-0.331,0.719-0.398,1.05-0.15c0.332,0.249,0.399,0.719,0.15,1.05   c-2.689,3.586-5.179,7.373-7.399,11.256C252.37,344.4,252.117,344.536,251.856,344.536z"/>
	<path d="M276.614,456.373c-0.023,0-0.046-0.001-0.07-0.005c-0.273-0.038-0.464-0.291-0.426-0.564   c0.305-2.185,0.64-4.332,0.996-6.383c0.431-2.577,0.961-5.457,1.718-9.335c0.654-3.345,1.401-6.97,2.282-11.083   c0.65-3.057,1.334-6.164,2.022-9.293l1.895-8.542c6.219-27.922,12.65-56.794,7.893-60.942c-1.381-1.201-6.681-4.276-16.895,6.615   c-19.423,20.721-36.888,41.014-55.378,62.498c-5.843,6.789-11.736,13.636-17.75,20.562c-0.993,1.152-1.988,2.293-3.005,3.446   l-3.61,4.152c-0.181,0.208-0.497,0.231-0.705,0.049c-0.208-0.181-0.23-0.497-0.049-0.705l3.612-4.154   c1.017-1.153,2.01-2.292,3.002-3.442c6.014-6.927,11.906-13.772,17.748-20.56c18.498-21.492,35.969-41.793,55.407-62.53   c10.824-11.542,16.729-8.035,18.281-6.684c5.206,4.54-1.002,32.408-7.573,61.914l-1.895,8.54c-0.688,3.126-1.371,6.232-2.021,9.287   c-0.88,4.108-1.626,7.728-2.279,11.066c-0.755,3.868-1.283,6.74-1.713,9.311c-0.354,2.043-0.688,4.18-0.991,6.354   C277.074,456.192,276.86,456.373,276.614,456.373z"/>
	<path d="M166.118,480.915c-0.117,0-0.234-0.041-0.329-0.123c-0.208-0.182-0.229-0.498-0.048-0.706l0.238-0.26   c8.181-8.872,16.689-18.344,26.021-28.968c1.186-1.344,2.359-2.686,3.521-4.018c0.182-0.208,0.498-0.229,0.706-0.048   c0.208,0.182,0.229,0.498,0.048,0.706c-1.163,1.333-2.338,2.677-3.524,4.021c-9.336,10.629-17.851,20.107-26.028,28.975   l-0.228,0.25C166.396,480.857,166.258,480.915,166.118,480.915z"/>
	<path d="M296.128,514.123c-4.806,0-10.874-1.062-16.005-5.526c-1.086-0.938-2.061-2.11-2.898-3.481   c-1.494-2.412-2.593-5.469-3.093-8.604c-2.08-13.006-0.121-26.358,1.774-39.27l0.212-1.442c0.04-0.273,0.292-0.462,0.567-0.422   c0.273,0.04,0.462,0.294,0.422,0.567l-0.211,1.443c-1.884,12.837-3.833,26.111-1.776,38.967c0.479,3.007,1.529,5.933,2.957,8.237   c0.785,1.285,1.693,2.377,2.701,3.249c8.143,7.086,18.868,5.203,22.391,4.585l0.545-0.094c2.814-0.467,6.323-2.553,7.324-5.236   c1.131-3.012-1.734-7.31-6.129-9.198c-4.389-1.875-9.465-1.26-13.944-0.719c-0.276,0.035-0.523-0.162-0.556-0.436   c-0.033-0.274,0.162-0.523,0.436-0.556c4.604-0.557,9.821-1.187,14.458,0.793c4.864,2.09,7.981,6.981,6.672,10.468   c-1.169,3.134-5.044,5.365-8.096,5.871l-0.536,0.093C301.899,513.664,299.286,514.123,296.128,514.123z"/>
	<path d="M277.607,449.631c-0.051,0-0.098-0.031-0.117-0.081c-0.024-0.065,0.009-0.137,0.073-0.161   c7.381-2.76,15.025-6.441,22.106-10.647c6.049-3.585,11.626-7.505,16.578-11.65c0.024-0.017,0.038-0.028,0.051-0.04   c0.021-0.017,0.041-0.034,0.062-0.048c0.057-0.038,0.135-0.023,0.173,0.035c0.038,0.057,0.023,0.135-0.035,0.173   c-0.013,0.009-0.027,0.02-0.04,0.031c-0.02,0.017-0.041,0.034-0.061,0.048c-4.951,4.145-10.54,8.073-16.6,11.665   c-7.093,4.213-14.751,7.901-22.146,10.666C277.636,449.629,277.622,449.631,277.607,449.631z"/>
	<path d="M231.847,458.093c-13.403,0-26.675-2.081-39.261-6.255c-0.197-0.065-0.303-0.277-0.238-0.474   c0.065-0.196,0.277-0.303,0.474-0.238c26.897,8.922,56.962,8.221,84.656-1.971c0.195-0.072,0.41,0.028,0.481,0.222   c0.072,0.195-0.028,0.41-0.222,0.481C262.84,455.341,247.258,458.093,231.847,458.093z"/>
	<path d="M227.782,451.465c-10.559,0-21.206-1.39-31.904-4.175c-0.067-0.017-0.107-0.085-0.09-0.152   c0.017-0.066,0.086-0.108,0.153-0.089c28.23,7.348,56.118,4.969,82.89-7.071c0.062-0.029,0.137,0,0.165,0.063   c0.028,0.063,0,0.137-0.063,0.165C262.255,447.706,245.14,451.465,227.782,451.465z"/>
	<path d="M195.91,447.669c-0.276,0-0.506-0.224-0.506-0.5s0.218-0.5,0.494-0.5h0.011c0.276,0,0.5,0.224,0.5,0.5   S196.186,447.669,195.91,447.669z"/>
	<path d="M221.285,445.18c-7.329,0-14.608-0.681-21.786-2.042c-0.068-0.013-0.113-0.078-0.1-0.146   c0.013-0.068,0.079-0.113,0.146-0.1c27.52,5.22,57.331,0.139,81.792-13.939c0.059-0.034,0.136-0.014,0.171,0.046   c0.034,0.06,0.014,0.136-0.046,0.171c-12.238,7.043-25.613,11.841-39.752,14.26C234.891,444.597,228.066,445.18,221.285,445.18z"/>
	<path d="M211.176,440.036c-2.918,0-5.806-0.112-8.661-0.34c-0.069-0.005-0.12-0.066-0.115-0.135   c0.005-0.069,0.069-0.123,0.135-0.115c26.452,2.105,56.001-5.673,81.068-21.34c0.058-0.036,0.135-0.019,0.172,0.04   c0.037,0.058,0.019,0.135-0.04,0.172C261.329,432.323,235.343,440.036,211.176,440.036z"/>
	<path d="M277.788,504.901c-0.013,0-0.027-0.002-0.041-0.007c-0.065-0.022-0.1-0.094-0.077-0.159   c2.337-6.762,4.699-14.143,6.984-21.281c2.261-7.064,4.599-14.37,6.913-21.075l0.068-0.191c2.875-8.323,5.46-15.826,7.981-23.379   c9.026-26.93,17.966-56.082,22.223-86.789c1.401-10.135,2.069-22.821-5.253-31.034c-6.153-6.885-17.132-9.254-27.969-6.037   c-9.69,2.865-21.317,11.411-29.219,17.589c-0.054,0.043-0.133,0.033-0.175-0.021c-0.043-0.054-0.033-0.133,0.021-0.175   c7.918-6.191,19.571-14.755,29.302-17.632c4.969-1.475,10.373-1.785,15.217-0.874c5.324,1.002,9.823,3.417,13.01,6.983   c7.39,8.29,6.722,21.047,5.314,31.235c-4.259,30.727-13.203,59.893-22.233,86.834c-2.521,7.553-5.106,15.057-7.981,23.38   l-0.067,0.191c-2.313,6.704-4.651,14.007-6.911,21.071c-2.285,7.139-4.647,14.521-6.986,21.286   C277.888,504.869,277.839,504.901,277.788,504.901z"/>
	<path d="M259.311,333.193c-0.194,0-0.388-0.074-0.533-0.222c-0.29-0.296-0.29-0.765,0.006-1.055l0.011-0.011   c0.296-0.29,0.771-0.285,1.061,0.011s0.285,0.771-0.011,1.061C259.696,333.121,259.503,333.193,259.311,333.193z"/>
	<path d="M117.174,394.762c-7.213,0-14.457-1.538-20.927-4.497c-2.135-0.981-4.19-2.089-6.109-3.294   c-12.28-7.66-22.051-20.684-26.807-35.731c-4.87-15.419-4.955-33.319-0.245-51.763c0.068-0.267,0.339-0.43,0.608-0.361   c0.268,0.068,0.429,0.341,0.361,0.608c-4.664,18.263-4.585,35.973,0.229,51.214c4.685,14.824,14.302,27.648,26.384,35.185   c1.883,1.183,3.9,2.27,5.995,3.232c8.282,3.787,17.862,5.199,26.976,3.978c5.472-0.723,10.58-2.345,15.182-4.821   c2.312-1.224,4.506-2.686,6.523-4.348c0.213-0.176,0.529-0.145,0.704,0.068c0.176,0.213,0.145,0.528-0.068,0.704   c-2.069,1.706-4.319,3.206-6.688,4.459c-4.707,2.533-9.929,4.192-15.521,4.93C121.591,394.618,119.383,394.762,117.174,394.762z"/>
	<path d="M138.698,389.003c-0.189,0-0.379-0.071-0.525-0.214c-4.034-3.955-7.823-8.264-11.26-12.806   c-8.011-10.567-14.116-22.283-18.144-34.823l-0.204-0.647c-1.148-3.639-2.205-7.929-1.329-12.163   c0.869-4.133,4.373-8.606,9.154-8.76c1.813-0.056,3.573,0.466,5.252,1.554c2.78,1.777,4.965,4.801,6.735,7.524   c1.492,2.312,2.96,4.764,4.514,7.359c2.316,3.867,4.71,7.866,7.302,11.574c2.86,4.056,5.554,7.178,8.235,9.542   c0.311,0.274,0.341,0.748,0.067,1.058c-0.273,0.311-0.748,0.341-1.058,0.067c-2.77-2.442-5.541-5.649-8.471-9.805   c-2.624-3.754-5.032-7.776-7.361-11.665c-1.548-2.584-3.01-5.025-4.487-7.314c-1.681-2.587-3.744-5.452-6.288-7.079   c-1.422-0.922-2.905-1.361-4.392-1.316c-4.017,0.129-6.983,3.995-7.734,7.567c-0.806,3.894,0.2,7.951,1.291,11.406l0.203,0.644   c3.975,12.374,10.002,23.94,17.911,34.372c3.394,4.484,7.133,8.737,11.115,12.64c0.296,0.29,0.3,0.765,0.01,1.061   C139.086,388.928,138.892,389.003,138.698,389.003z"/>
	<path d="M123.616,393.675c-0.019,0-0.038-0.001-0.058-0.003c-0.274-0.031-0.471-0.28-0.44-0.554   c0.549-4.785,2.487-12.244,3.769-17.179l0.139-0.534c0.069-0.267,0.341-0.428,0.61-0.358c0.267,0.069,0.428,0.342,0.358,0.61   l-0.139,0.534c-1.275,4.909-3.202,12.327-3.743,17.042C124.083,393.487,123.867,393.675,123.616,393.675z"/>
	<path d="M163.342,497.319c-0.048,0-0.097-0.005-0.146-0.014c-0.406-0.08-0.671-0.474-0.591-0.881   c1.063-5.392,2.075-10.908,3.011-16.395c0.997-5.857,1.93-11.84,2.773-17.782c1.217-8.497,2.291-17.272,3.191-26.082   c2.926-28.536,4.049-57.419,3.338-85.847c-0.187-7.251-0.528-14.93-2.436-22.087c-0.752-2.89-1.702-5.483-2.906-7.934   c-3.987-8.152-13.105-16.518-23.693-15.625c-10,0.848-18.213,10.289-23.521,17.315c-0.25,0.33-0.72,0.396-1.051,0.146   c-0.33-0.25-0.396-0.72-0.146-1.051c5.481-7.256,13.993-17.007,24.592-17.906c11.294-0.954,20.963,7.865,25.166,16.459   c1.248,2.541,2.233,5.228,3.01,8.212c1.948,7.311,2.296,15.09,2.485,22.431c0.712,28.492-0.413,57.439-3.345,86.038   c-0.902,8.83-1.979,17.625-3.198,26.141c-0.845,5.954-1.781,11.951-2.78,17.822c-0.937,5.5-1.953,11.029-3.018,16.433   C164.007,497.072,163.693,497.319,163.342,497.319z"/>
	<path d="M90.687,386.597c-0.038,0-0.077-0.004-0.116-0.013c-0.269-0.064-0.435-0.333-0.371-0.602   c1.663-7.006,3.915-14.161,6.693-21.267c1.258-3.221,2.698-6.577,4.28-9.974c2.276-4.894,4.858-9.841,7.675-14.704   c0.138-0.239,0.444-0.32,0.683-0.182c0.239,0.138,0.321,0.444,0.182,0.683c-2.802,4.837-5.37,9.758-7.633,14.625   c-1.573,3.378-3.004,6.715-4.255,9.917c-2.761,7.063-4.998,14.173-6.651,21.134C91.118,386.442,90.913,386.597,90.687,386.597z"/>
	<path d="M143.642,500.445c-0.26,0-0.479-0.2-0.498-0.463l-0.028-0.372c-0.115-1.558-0.229-3.105-0.334-4.644   c-0.378-5.359-0.674-10.277-0.904-15.035c-0.539-10.828-0.779-20.958-0.734-30.969c0.078-20.894,1.407-41.434,4.18-64.641   c0.328-2.745,0.667-5.524,1.04-8.349c0.659-5.049,1.068-13.414,1.068-18.268c0-4.161-1.919-8.522-4.278-9.72   c-1.043-0.529-2.105-0.409-3.157,0.359c-0.223,0.163-0.536,0.114-0.699-0.109c-0.163-0.223-0.114-0.536,0.109-0.699   c1.361-0.994,2.814-1.147,4.2-0.443c2.706,1.374,4.825,6.036,4.825,10.612c0,4.993-0.403,13.24-1.076,18.398   c-0.372,2.821-0.711,5.596-1.038,8.337c-2.769,23.167-4.095,43.671-4.174,64.526c-0.045,9.992,0.195,20.105,0.733,30.916   c0.23,4.751,0.525,9.662,0.903,15.015c0.104,1.538,0.219,3.083,0.334,4.639l0.027,0.372c0.021,0.275-0.186,0.515-0.462,0.535   C143.667,500.444,143.654,500.445,143.642,500.445z"/>
	<path d="M164.855,513.677c-16.469,0-21.415-8.895-21.712-13.701c-0.017-0.276,0.193-0.513,0.468-0.53   c0.274-0.02,0.513,0.193,0.53,0.468c0.008,0.132,1.065,13.223,21.796,12.75c7.54-0.176,10.841-2.544,12.283-4.5   c1.135-1.539,1.533-3.443,1.065-5.092c-1.846-6.447-6.872-8.36-15.818-6.02c-0.266,0.071-0.54-0.09-0.61-0.357   c-0.07-0.267,0.09-0.54,0.357-0.61c9.458-2.475,15.03-0.279,17.032,6.713c0.552,1.946,0.095,4.174-1.222,5.96   c-1.575,2.136-5.12,4.72-13.065,4.906C165.587,513.672,165.217,513.677,164.855,513.677z"/>
	<path d="M187.217,370.646c-0.045,0-0.09-0.006-0.135-0.019c-0.266-0.074-0.421-0.35-0.347-0.616   c2.787-9.961,4.589-20.281,5.356-30.675c0.617-8.385,0.549-16.881-0.203-25.251c-0.034-0.447-0.089-0.887-0.155-1.338   c-0.46-3.435-1.914-9.301-6.496-10.055c-3.202-0.524-6.098,1.952-7.436,4.471c-1.379,2.597-1.739,5.647-2.087,8.598l-0.094,0.789   c-0.427,3.495-1.014,7.038-1.745,10.53c-0.056,0.27-0.32,0.442-0.592,0.387c-0.27-0.057-0.443-0.322-0.387-0.592   c0.726-3.464,1.308-6.979,1.731-10.445l0.094-0.786c0.359-3.042,0.73-6.188,2.197-8.95c1.5-2.825,4.793-5.591,8.481-4.989   c3.867,0.636,6.468,4.509,7.324,10.903c0.069,0.469,0.126,0.932,0.161,1.395c0.756,8.416,0.824,16.967,0.203,25.406   c-0.772,10.46-2.586,20.846-5.39,30.871C187.637,370.501,187.436,370.645,187.217,370.646z"/>
	<path d="M145.663,384.675c-0.032,0-0.064-0.012-0.089-0.037c-0.049-0.049-0.049-0.128,0-0.177c0.027-0.027,0.051-0.053,0.074-0.08   c0.027-0.03,0.054-0.06,0.084-0.09c11.415-11.907,22.152-34,27.353-56.282l0.136-0.555c0.017-0.067,0.083-0.108,0.152-0.091   c0.067,0.017,0.108,0.085,0.091,0.152l-0.135,0.553c-5.21,22.321-15.972,44.459-27.418,56.399   c-0.029,0.029-0.053,0.055-0.076,0.082c-0.027,0.03-0.054,0.06-0.084,0.09C145.727,384.663,145.695,384.675,145.663,384.675z"/>
	<path d="M208.768,371.47c-0.053,0-0.106-0.009-0.159-0.026c-0.262-0.088-0.403-0.372-0.314-0.633   c3.479-10.346,6.093-21.075,7.769-31.887c0.285-1.737,0.523-3.453,0.698-4.754c1.038-7.89,1.587-15.978,1.632-24.038   c0-0.399,0-0.812-0.011-1.214c-0.022-2.983-0.213-6.119-1.458-8.909c-1.256-2.809-4.058-5.619-7.562-5.563   c-5.676,0.091-8.563,7.218-9.778,11.457c-1.475,5.194-1.943,9.135-2.438,13.309c-0.349,2.938-0.71,5.975-1.435,9.712   c-0.052,0.271-0.313,0.449-0.586,0.396c-0.271-0.052-0.448-0.315-0.396-0.586c0.718-3.701,1.077-6.72,1.423-9.639   c0.5-4.214,0.973-8.194,2.47-13.465c1.292-4.507,4.402-12.081,10.723-12.183c3.95-0.04,7.101,3.046,8.491,6.155   c1.32,2.959,1.523,6.218,1.545,9.299c0.011,0.401,0.011,0.823,0.011,1.234c-0.045,8.104-0.597,16.234-1.641,24.167   c-0.177,1.31-0.416,3.034-0.702,4.78c-1.685,10.864-4.312,21.648-7.809,32.048C209.171,371.338,208.977,371.47,208.768,371.47z"/>
	<path d="M192.591,339.872c-0.047,0-0.096-0.007-0.143-0.021c-0.265-0.079-0.415-0.357-0.336-0.622   c1.12-3.751,1.973-7.177,2.607-10.473c0.052-0.271,0.314-0.448,0.585-0.396c0.271,0.052,0.449,0.314,0.396,0.585   c-0.641,3.329-1.501,6.786-2.631,10.57C193.005,339.732,192.806,339.872,192.591,339.872z"/>
	<path d="M169.132,462.728c-0.099,0-0.198-0.039-0.272-0.117c-0.143-0.15-0.136-0.387,0.014-0.53   c6.887-6.544,13.547-14.586,20.958-25.307c8.149-11.791,15.554-24.265,22.009-37.073c10.212-20.231,18.247-41.582,23.882-63.458   c0.684-2.619,1.344-5.336,2.018-8.309c0.828-3.571,1.617-7.323,2.345-11.152l0.047-0.243c0.108-0.558,0.215-1.11,0.313-1.671   c0.596-3.271,1.023-6.203,0.212-8.997c-0.776-2.641-3.211-5.362-6.235-5.194c-3.827,0.218-6,4.666-7.303,7.992   c-1.612,4.149-3.21,8.569-4.755,12.843c-1.546,4.278-3.146,8.702-4.761,12.861c-0.075,0.193-0.292,0.289-0.485,0.214   c-0.193-0.075-0.289-0.292-0.214-0.485c1.613-4.15,3.21-8.57,4.755-12.844c1.546-4.278,3.146-8.702,4.761-12.861   c1.378-3.52,3.701-8.225,7.96-8.468c3.399-0.179,6.139,2.814,6.996,5.733c0.855,2.948,0.396,6.1-0.194,9.339   c-0.099,0.563-0.206,1.119-0.315,1.681l-0.047,0.241c-0.73,3.838-1.521,7.599-2.351,11.178c-0.675,2.979-1.337,5.704-2.023,8.33   c-5.648,21.928-13.702,43.329-23.938,63.608c-6.47,12.839-13.893,25.342-22.062,37.162c-7.441,10.765-14.133,18.844-21.059,25.425   C169.318,462.693,169.225,462.728,169.132,462.728z"/>
	<path d="M112.57,485.892c-0.627,0-1.254-0.007-1.881-0.022c-1.574-0.033-3.161-0.118-4.851-0.261   c-6.565-0.549-13.01-1.91-19.155-4.045c-13.825-4.811-26.867-15.11-37.717-29.786c-4.967-6.7-9.255-14.035-12.743-21.801   c-9.364-20.827-15.713-47.904-17.879-76.242c-1.411-18.379-0.961-36.806,1.302-53.288c5.733-41.881,25.808-88.223,53.7-123.965   c0.171-0.218,0.485-0.256,0.702-0.087c0.218,0.17,0.256,0.484,0.087,0.702c-27.789,35.609-47.788,81.771-53.498,123.486   c-2.253,16.413-2.701,34.766-1.295,53.076c2.157,28.227,8.477,55.185,17.794,75.909c3.459,7.7,7.709,14.973,12.634,21.616   c7.483,10.121,20.017,23.443,37.242,29.436c6.066,2.107,12.428,3.451,18.91,3.993c1.668,0.141,3.235,0.226,4.789,0.258   c10.582,0.246,21.334-1.623,31.09-5.407c0.257-0.1,0.547,0.028,0.647,0.285s-0.028,0.547-0.285,0.647   C132.864,484.003,122.672,485.892,112.57,485.892z"/>
	<path d="M130.478,497.66c-9.209,0-16.406-4.11-20.124-11.661c-0.092-0.186-0.015-0.411,0.171-0.502   c0.186-0.091,0.411-0.015,0.502,0.171c4.177,8.481,12.94,12.458,24.041,10.914c2.65-0.363,4.928-0.951,7.618-1.966   c0.194-0.073,0.41,0.025,0.483,0.219c0.073,0.194-0.025,0.41-0.219,0.483c-2.745,1.036-5.072,1.636-7.781,2.008   C133.557,497.549,131.989,497.66,130.478,497.66z"/>
	<path d="M84.554,496.882c-5.094,0-10.527-1.49-16.225-4.485c-15.381-8.08-23.867-26.101-19.319-41.025   c0.061-0.198,0.271-0.31,0.468-0.249c0.198,0.06,0.31,0.27,0.249,0.468c-4.373,14.348,4.128,32.356,18.95,40.142   c14.515,7.63,27.278,5.26,36.91-6.855c0.129-0.162,0.365-0.189,0.527-0.06s0.189,0.365,0.06,0.527   C100.076,493.015,92.758,496.882,84.554,496.882z"/>
	<path d="M123.843,450.916c-8.782,0-17.706-1.277-26.414-3.814c-14.484-4.219-27.674-11.73-38.144-21.72   c-22.744-21.7-33.267-48.395-40.56-71.647c-0.021-0.066,0.016-0.136,0.082-0.156c0.066-0.02,0.136,0.016,0.157,0.082   c7.284,23.221,17.791,49.88,40.494,71.541c21.057,20.09,52.949,29.445,81.248,23.833c0.3-0.056,0.598-0.122,0.897-0.188   c10.202-2.139,20.512-6.414,30.659-12.71c14.004-8.679,27.757-21.254,39.772-36.367c0.043-0.054,0.122-0.063,0.176-0.02   c0.054,0.043,0.063,0.122,0.02,0.176c-12.033,15.135-25.808,27.73-39.836,36.424c-10.172,6.311-20.509,10.597-30.723,12.739   c-0.315,0.07-0.616,0.137-0.917,0.192C135.243,450.372,129.573,450.916,123.843,450.916z"/>
	<path d="M115.601,205.961c-0.002,0-0.005,0-0.008,0c-0.069-0.004-0.121-0.063-0.117-0.132c0.989-16.282,10.82-35.481,23.908-46.688   c0.021-0.027,0.044-0.054,0.082-0.073c0.062-0.031,0.136-0.006,0.168,0.056c0.031,0.062,0.006,0.137-0.056,0.168   c-0.003,0.011-0.013,0.022-0.024,0.033c-13.047,11.172-22.843,30.299-23.828,46.519   C115.722,205.91,115.666,205.961,115.601,205.961z"/>
	<path d="M115.601,206.592c-0.414,0-0.75-0.33-0.75-0.744v-0.011c0-0.414,0.336-0.75,0.75-0.75s0.75,0.336,0.75,0.75   S116.015,206.592,115.601,206.592z"/>
	<path d="M177.351,217.216c-0.053,0-0.103-0.035-0.12-0.089c-2.25-7.376-1.932-16.012,0.896-24.318   c2.751-8.078,7.659-15.333,13.82-20.428c0.053-0.044,0.131-0.037,0.176,0.017c0.044,0.053,0.036,0.132-0.017,0.176   c-12.841,10.619-19.132,29.741-14.635,44.48c0.02,0.066-0.017,0.136-0.083,0.156C177.375,217.214,177.363,217.216,177.351,217.216z   "/>
	<path d="M91.248,80.849c-0.595,0-1.222-0.13-1.828-0.392c-1.165-0.522-2.109-1.416-2.942-2.206   c-1.235-1.17-2.635-2.496-3.454-4.171c-0.924-1.874-0.867-4.005,0.144-5.428c0.729-1.026,1.94-1.559,3.35-1.524   c-0.691-0.562-1.16-1.166-1.622-1.811c-1.086-1.503-1.428-3.209-0.915-4.562c0.475-1.262,1.697-2.211,3.041-2.362   c1.298-0.161,2.887,0.271,4.136,1.124c0.171,0.117,0.215,0.35,0.098,0.521c-0.117,0.171-0.351,0.215-0.521,0.098   c-1.088-0.743-2.512-1.135-3.626-0.998c-1.075,0.121-2.048,0.877-2.427,1.882c-0.424,1.117-0.116,2.56,0.822,3.859   c0.763,1.064,1.489,1.94,3.28,2.733c0.187,0.083,0.273,0.3,0.194,0.488c-0.079,0.188-0.295,0.279-0.484,0.204   c-1.972-0.781-3.823-0.473-4.715,0.783c-0.854,1.201-0.886,3.031-0.082,4.663c0.76,1.555,2.05,2.776,3.297,3.958   c0.79,0.748,1.685,1.596,2.729,2.063c0.864,0.374,2.119,0.543,3.039-0.11c1.061-0.741,1.314-2.211,1.481-3.655   c0.396-3.354,0.864-6.45,1.317-9.445c0.452-2.988,0.919-6.079,1.314-9.42c0.024-0.206,0.212-0.357,0.416-0.328   c0.206,0.024,0.353,0.211,0.328,0.416c-0.396,3.353-0.864,6.45-1.317,9.444c-0.452,2.988-0.919,6.079-1.314,9.42   c-0.179,1.542-0.481,3.263-1.795,4.181C92.654,80.655,91.974,80.849,91.248,80.849z"/>
	<path d="M90.946,60.201c-0.086,0-0.173-0.03-0.243-0.09c-1.441-1.231-1.861-3.508-0.955-5.182c0.894-1.675,3.029-2.569,4.86-2.033   c0.324,0.1,0.635,0.237,0.93,0.408c1.356,0.818,2.19,2.387,2.082,3.906c-0.015,0.207-0.194,0.366-0.401,0.347   c-0.207-0.015-0.362-0.194-0.347-0.401c0.089-1.246-0.601-2.535-1.716-3.208c-0.24-0.14-0.499-0.254-0.763-0.335   c-1.497-0.438-3.25,0.294-3.984,1.669c-0.745,1.377-0.401,3.247,0.782,4.257c0.157,0.135,0.176,0.371,0.042,0.529   C91.157,60.157,91.051,60.201,90.946,60.201z"/>
	<path d="M81.565,109.105c-0.066,0-0.134-0.018-0.194-0.054c-1.462-0.888-2.636-3.447-1.879-4.948   c0.698-1.41,2.446-2.175,3.971-1.738c0.126,0.035,0.214,0.061,0.293,0.095c0.19,0.082,0.278,0.302,0.197,0.493   c-0.082,0.19-0.302,0.278-0.493,0.197c-0.049-0.021-0.104-0.035-0.155-0.05c-1.22-0.348-2.607,0.258-3.143,1.339   c-0.56,1.111,0.459,3.281,1.597,3.972c0.177,0.107,0.233,0.338,0.126,0.515C81.815,109.04,81.691,109.105,81.565,109.105z"/>
	<path d="M83.624,103.008c-0.045,0-0.093-0.013-0.141-0.042c-0.057-0.034-0.107-0.074-0.159-0.119   c-1.206-0.896-2.426-1.854-3.29-3.131c-1.024-1.509-1.283-3.313-0.677-4.706c0.9-2.051,3.322-2.795,5.188-2.617   c0.787,0.079,2.291,0.278,3.536,0.732c1.191,0.416,1.904,0.981,2.116,1.677c0.06,0.198-0.052,0.407-0.25,0.468   c-0.197,0.06-0.408-0.052-0.468-0.25c-0.134-0.442-0.72-0.864-1.65-1.189c-1.173-0.428-2.606-0.617-3.357-0.692   c-1.654-0.156-3.712,0.538-4.428,2.171c-0.604,1.385-0.08,2.967,0.61,3.985c0.798,1.18,1.961,2.091,3.085,2.923   c0.178,0.106,0.299,0.388,0.193,0.566C83.857,102.915,83.747,103.008,83.624,103.008z"/>
	<path d="M90.472,103.449c-0.014,0-0.028-0.001-0.042-0.002c-0.206-0.023-0.354-0.208-0.331-0.414   c0.298-2.671,0.083-5.445-0.621-8.021c-0.054-0.2,0.063-0.406,0.263-0.461c0.2-0.054,0.406,0.063,0.461,0.263   c0.729,2.667,0.952,5.538,0.643,8.302C90.823,103.307,90.661,103.449,90.472,103.449z"/>
	<path d="M87.198,105.4c-0.003,0-0.006,0-0.008,0c-0.069-0.004-0.121-0.064-0.117-0.133L87.83,93.47   c0.004-0.069,0.064-0.122,0.133-0.117c0.069,0.004,0.121,0.064,0.117,0.133l-0.756,11.797   C87.319,105.349,87.263,105.4,87.198,105.4z"/>
	<path d="M89.569,80.237c-0.009,0-0.019-0.001-0.028-0.003c-0.067-0.015-0.109-0.082-0.094-0.15   c0.948-4.151,1.878-8.53,2.778-12.765c0.491-2.31,0.981-4.621,1.478-6.91c0.455-2.089,0.94-4.309,1.434-6.47   c0.015-0.067,0.081-0.109,0.15-0.094c0.067,0.015,0.109,0.083,0.094,0.15c-0.494,2.159-0.979,4.379-1.434,6.467   c-0.496,2.289-0.987,4.599-1.478,6.909c-0.9,4.236-1.83,8.615-2.778,12.769C89.677,80.198,89.626,80.237,89.569,80.237z"/>
	<path d="M113.327,77.509c-0.214,0-0.428-0.018-0.641-0.053c-1.721-0.291-3.202-1.777-3.775-3.788   c-0.491-1.726-0.313-3.509-0.141-5.233l0.564-5.589c0.068-0.742,0.147-1.501,0.226-2.249c0.146-1.534,0.418-2.979,0.808-4.289   c0.441-1.516,1.399-2.659,2.628-3.134c0.797-0.309,2.075-0.475,3.633,0.48c1.223,0.746,1.954,2.041,2.561,3.329   c0.94,1.994,1.495,4.17,1.65,6.468c0,0,0,0,0,0c0.235,3.535-0.553,7.129-2.219,10.12c-0.167,0.298-0.346,0.596-0.548,0.881   C116.717,76.423,115.016,77.509,113.327,77.509z M114.285,53.935c-0.32,0-0.63,0.057-0.927,0.172   c-0.936,0.362-1.675,1.267-2.029,2.484c-0.372,1.252-0.632,2.633-0.772,4.107c-0.079,0.748-0.158,1.502-0.226,2.244l-0.565,5.595   c-0.163,1.628-0.331,3.315,0.108,4.857c0.383,1.345,1.452,2.818,2.978,3.076c2.122,0.349,3.787-1.694,4.404-2.59   c0.185-0.262,0.345-0.529,0.495-0.796c1.572-2.824,2.316-6.221,2.094-9.566c-0.146-2.172-0.67-4.227-1.557-6.108   c-0.504-1.068-1.129-2.262-2.178-2.902C115.488,54.127,114.871,53.935,114.285,53.935z"/>
	<path d="M118.57,56.974c-0.194,0-0.379-0.114-0.46-0.304c-0.108-0.254,0.01-0.548,0.264-0.656l6.198-2.653   c0.254-0.109,0.548,0.01,0.656,0.264c0.108,0.254-0.01,0.548-0.264,0.656l-6.198,2.653   C118.702,56.961,118.635,56.974,118.57,56.974z"/>
	<path d="M127.692,66.377c-0.014,0-0.028,0-0.042-0.002l-7.304-0.61c-0.275-0.023-0.479-0.265-0.456-0.54s0.263-0.478,0.54-0.456   l7.304,0.61c0.275,0.023,0.479,0.265,0.457,0.54C128.167,66.18,127.949,66.377,127.692,66.377z"/>
	<path d="M123.401,78.106c-0.085,0-0.171-0.021-0.25-0.067l-0.675-0.389c-1.648-0.949-3.696-2.129-5.066-3.057   c-0.148-0.087-0.249-0.247-0.249-0.43c0-0.276,0.218-0.5,0.494-0.5h0.011c0.1,0,0.198,0.03,0.281,0.086   c1.34,0.909,3.385,2.087,5.028,3.034l0.676,0.39c0.239,0.138,0.321,0.444,0.183,0.683   C123.742,78.017,123.574,78.106,123.401,78.106z"/>
	<path d="M73.968,113.054c-0.004,0-0.008,0-0.012,0c-4.523-0.431-19.875-2.317-27.521-8.517c-5.583-4.527-11.877-11.7-10.159-20.171   c1.07-5.262,4.78-13.426,8.908-17.438C57.607,54.867,73.118,47.395,90.039,45.32c0.023-0.005,0.055-0.008,0.086-0.011   c0.024-0.002,0.049-0.005,0.073-0.01c0.066-0.013,0.133,0.03,0.147,0.098c0.014,0.068-0.03,0.134-0.098,0.147   c-0.033,0.007-0.065,0.01-0.098,0.013c-0.024,0.002-0.048,0.005-0.072,0.009c-16.875,2.069-32.336,9.517-44.72,21.54   c-4.094,3.979-7.775,12.083-8.838,17.309c-1.694,8.348,4.542,15.444,10.071,19.927c6.032,4.891,18.103,7.578,27.388,8.462   c0.069,0.007,0.119,0.068,0.113,0.136C74.086,113.006,74.031,113.054,73.968,113.054z"/>
	<path d="M58.874,113.903l-2.12-0.307c-7.114-1.053-16.856-2.497-22.689-5.564c-6.316-3.315-10.833-10.384-11.509-18.009   c-0.601-6.88,2.949-14.035,10.551-21.268c9.968-9.485,27.058-18.837,40.637-22.238c0.021-0.005,0.042-0.009,0.064-0.011   c0.008-0.002,0.014-0.003,0.021-0.005c0.247-0.124,0.504-0.01,0.628,0.237c0.125,0.246-0.018,0.563-0.264,0.688   c-0.04,0.02-0.123,0.047-0.167,0.055c-0.056,0.028-0.062,0.024-0.103,0.022C60.503,50.88,43.638,60.115,33.797,69.479   c-7.37,7.013-10.817,13.895-10.244,20.456c0.636,7.182,5.048,14.099,10.978,17.211c5.682,2.988,15.328,4.417,22.37,5.46   l2.026,0.302c0.276,0,0.474,0.221,0.474,0.497C59.4,113.682,59.15,113.903,58.874,113.903z"/>
	<path d="M45.29,113.712c-0.346,0-0.703-0.009-1.074-0.026c-9.009-0.362-23.536-5.475-28.763-11.524   c-5.196-6.024-5.733-14.517-1.474-23.301c2.36-4.864,6.574-9.743,11.273-13.053c8.198-5.782,23.718-13.735,34.495-16.5   c0.015-0.005,0.038-0.01,0.061-0.013c0.011-0.002,0.021-0.003,0.032-0.007c0.065-0.021,0.136,0.014,0.158,0.079   s-0.014,0.136-0.079,0.158c-0.023,0.008-0.046,0.012-0.07,0.016c-0.011,0.002-0.021,0.003-0.032,0.007   c-10.757,2.76-26.24,10.695-34.421,16.465C20.8,69.25,16.511,74.215,14.204,78.97c-4.213,8.69-3.689,17.084,1.438,23.029   c5.187,6.003,19.625,11.077,28.584,11.438c0.735,0.034,1.411,0.034,2.066,0c0.075-0.011,0.127,0.05,0.131,0.118   s-0.049,0.128-0.118,0.131C45.973,113.703,45.636,113.712,45.29,113.712z"/>
	<path d="M115.962,67.786c-1.059,0-1.92-0.861-1.92-1.92s0.861-1.92,1.92-1.92s1.92,0.861,1.92,1.92S117.02,67.786,115.962,67.786z    M115.962,64.196c-0.921,0-1.67,0.749-1.67,1.67s0.749,1.67,1.67,1.67s1.67-0.749,1.67-1.67S116.883,64.196,115.962,64.196z"/>
	<path d="M173.343,327.305c-0.013,0-0.026-0.002-0.04-0.006c-0.065-0.022-0.101-0.092-0.079-0.158c0,0,0.024-0.072,0.084-0.204   c0.999-2.282,6.317-13.761,12.81-15.481c1.926-0.51,3.791-0.107,5.542,1.197c0.055,0.041,0.067,0.12,0.026,0.175   c-0.041,0.056-0.12,0.067-0.175,0.026c-1.688-1.257-3.479-1.645-5.329-1.156c-6.382,1.69-11.654,13.076-12.646,15.341   c-0.052,0.115-0.073,0.178-0.075,0.181C173.444,327.272,173.396,327.305,173.343,327.305z"/>
	<path d="M195.221,328.953c-0.016,0-0.031-0.003-0.046-0.009c-0.064-0.026-0.095-0.098-0.07-0.162   c0.791-1.975,7.987-19.359,16.817-21.687c2.439-0.643,4.804-0.071,7.027,1.701c0.038,0.022,0.064,0.062,0.064,0.107   c0,0.069-0.05,0.125-0.119,0.125c-0.028,0-0.067-0.01-0.089-0.027c-2.161-1.727-4.455-2.287-6.818-1.664   c-8.712,2.296-15.862,19.575-16.649,21.537C195.317,328.923,195.27,328.953,195.221,328.953z"/>
	<path d="M195.21,329.35L195.21,329.35c-0.276,0-0.5-0.223-0.5-0.5c0-0.133,0.064-0.282,0.158-0.376   c0.195-0.195,0.512-0.195,0.707,0c0.161,0.161,0.189,0.404,0.085,0.594C195.579,329.235,195.407,329.35,195.21,329.35z"/>
	<path d="M195.108,329.224c-0.014,0-0.029-0.002-0.044-0.008c-0.065-0.024-0.097-0.096-0.073-0.161c0,0,0.034-0.092,0.104-0.254   c0.027-0.064,0.1-0.094,0.164-0.065c0.063,0.027,0.093,0.101,0.065,0.164c-0.066,0.153-0.099,0.241-0.099,0.243   C195.207,329.193,195.159,329.224,195.108,329.224z"/>
	<path d="M216.579,339.125c-0.014,0-0.028-0.002-0.042-0.007c-0.065-0.023-0.099-0.095-0.076-0.16   c0.076-0.212,7.67-21.214,16.981-23.855c2.344-0.665,4.623-0.128,6.775,1.594c0.054,0.043,0.063,0.122,0.02,0.176   c-0.043,0.054-0.122,0.062-0.176,0.02c-2.086-1.67-4.291-2.191-6.55-1.549c-9.187,2.606-16.739,23.488-16.814,23.699   C216.679,339.093,216.631,339.125,216.579,339.125z"/>
	<path d="M79.973,368.9c-0.264,0-0.524-0.084-0.74-0.243c-0.283-0.208-0.466-0.526-0.503-0.875L64.947,237.724   c-0.028-0.263,0.028-0.529,0.161-0.758l5.769-9.968c0.167-0.29,0.444-0.5,0.768-0.584l70.736-18.333l0.627,2.42l-70.23,18.202   l-5.302,9.163l13.596,128.29l14.821-2.97l0.491,2.451l-16.166,3.24C80.137,368.892,80.055,368.9,79.973,368.9z"/>
	<rect x="235.848" y="332.686" transform="matrix(0.9805 -0.1967 0.1967 0.9805 -60.8336 55.3083)" width="24.397" height="2.5"/>
	<path d="M310.999,296.677c-0.379,0-0.693-0.277-0.743-0.641l-11.594-51.879c-0.09-0.404,0.164-0.805,0.568-0.896   c0.405-0.09,0.805,0.164,0.896,0.568l11.605,51.929c0.012,0.054,0.018,0.109,0.018,0.164   C311.749,296.336,311.414,296.677,310.999,296.677z"/>
	<path d="M298.175,244.265l-15.445-69.129l-41.457,10.586l-0.619-2.422l42.706-10.905c0.328-0.083,0.675-0.031,0.963,0.146   c0.288,0.177,0.492,0.463,0.566,0.793l15.726,70.386L298.175,244.265z"/>
	<path d="M238.106,328.766c-0.351,0-0.665-0.248-0.735-0.605c-0.08-0.406,0.184-0.801,0.591-0.881l30.073-5.938   c0.456-0.089,0.901,0.273,0.901,0.736c0,0.385-0.284,0.702-0.657,0.745l-30.027,5.929   C238.203,328.761,238.155,328.766,238.106,328.766z"/>
	<path d="M86.532,358.056c-0.026,0-0.052-0.008-0.074-0.024c-0.028-0.021-0.046-0.052-0.05-0.087L71.834,227.638   c-0.008-0.069,0.042-0.13,0.11-0.138c0.067-0.009,0.131,0.042,0.138,0.11l14.559,130.172l14.96-2.954   c0.067-0.013,0.133,0.031,0.147,0.098s-0.031,0.134-0.098,0.147l-15.093,2.98C86.548,358.055,86.54,358.056,86.532,358.056z"/>
</g>

            </g>
        </g>
    </g>
    
    <!-- ITEM 1 -->
    <g>
        <defs>
            <clipPath id="clip-path-id-viewbox-item-1">
                <rect x="0.0" y="0.0" width="156.998" height="90.959"/>
            </clipPath>
        </defs>
        <g transform="translate(895.0 1101.0) rotate(0.0 168.5 98.0) scale(2.146524159543434 2.1548170054640003)">
            <g clip-path="url(#clip-path-id-viewbox-item-1)" transform="translate(-0.0 -0.0)">
                
<g>
	<path style="fill:#FFD249;" d="M156.748,31.339l-4.504,7.439l-9.02-9.686C144.127,29.093,156.748,31.339,156.748,31.339z"/>
	<polygon style="fill:#F46A3D;" points="150.663,9.033 153.598,15.117 139.849,17.149  "/>
	<path style="fill:#1E5C9A;" d="M137.602,90.459h-5.046c0,0,0.192-5.464-1.05-13.016c-1.23-7.564,1.118-16.391,2.167-24.181   c1.05-7.789-1.185-19.327-1.185-19.327c0.971,0.214,1.93,0.429,2.879,0.621c0.655,0.135,1.31,0.271,1.942,0.395   C137.399,53.274,137.501,72.126,137.602,90.459z"/>
	<polygon style="fill:#FFD249;" points="137.376,0.25 131.969,13.085 130.163,0.25  "/>
	<path style="fill:#F46A3D;" d="M135.367,34.534v0.023c-0.948-0.192-1.908-0.406-2.879-0.621c-1.671-0.361-3.353-0.734-4.956-1.061   v-0.011l0.135-0.655c0.463-2.472,1.23-4.899,2.258-7.225c0.373-0.835,0.926-1.761,1.919-1.93c0.869-0.135,1.738,0.384,2.19,1.072   c0.44,0.677,0.553,1.479,0.655,2.246C134.994,28.72,135.074,31.577,135.367,34.534z"/>
	<path style="fill:#86AEBA;" d="M132.488,33.936c0,0,2.235,11.537,1.185,19.327c-1.05,7.789-3.398,16.617-2.167,24.181   c1.242,7.552,1.05,13.016,1.05,13.016h-9.697c-0.214-9.731-0.294-20.76-0.429-31.146c-0.045-3.533-0.102-6.999-0.181-10.307   c-0.045-1.806-0.056-3.68,0.068-5.532c0.294-4.098,1.276-8.072,4.166-10.826l0.113,0.034c0.305,0.056,0.621,0.124,0.937,0.181   v0.011C129.136,33.202,130.818,33.575,132.488,33.936z"/>
	<path style="fill:#FFE6E7;" d="M122.43,59.313h-0.135l-18.096-0.26l14.63-15.488v-0.113l3.466,0.023h0.023   c-0.124,1.851-0.113,3.725-0.068,5.532C122.328,52.314,122.385,55.78,122.43,59.313z"/>
	<polygon style="fill:#F46A3D;" points="116.187,6.775 122.216,16.687 108.974,9.936  "/>
	<path style="fill:#FFD249;" d="M120.466,25.842l-8.421,9.167l-3.071-7.27C110.103,27.061,120.466,25.842,120.466,25.842z"/>
	<polygon style="fill:#1E5C9A;" points="118.829,43.452 118.829,43.565 104.199,59.054 95.145,58.918 95.156,58.455 109.798,43.565    109.798,43.396  "/>
	<polygon style="fill:#FFE6E7;" points="109.798,43.396 109.798,43.565 95.156,58.455 95.145,58.918 76.744,58.658 76.744,58.455    91.657,43.294  "/>
	<polygon style="fill:#1E5C9A;" points="91.657,43.294 76.744,58.455 76.744,58.658 68.052,58.534 68.063,58.105 82.682,43.238  "/>
	<polygon style="fill:#FFE6E7;" points="82.682,43.238 68.063,58.105 68.052,58.534 49.448,58.263 49.448,58.105 64.089,43.215    64.089,43.125  "/>
	<polygon style="fill:#1E5C9A;" points="64.089,43.125 64.089,43.215 49.448,58.105 49.448,58.263 40.405,58.139 40.405,58.105    55.058,43.215 55.058,43.08  "/>
	<polygon style="fill:#FFE6E7;" points="55.058,43.08 55.058,43.215 40.405,58.105 40.405,58.139 22.546,57.88 22.546,57.744    36.838,43.215 36.838,42.967  "/>
	<polygon style="fill:#1E5C9A;" points="36.838,42.967 36.838,43.215 22.546,57.744 22.546,57.88 13.368,57.744 27.807,43.215    27.807,42.911  "/>
	<polygon style="fill:#FFE6E7;" points="27.807,42.911 27.807,43.215 13.368,57.744 5.873,57.642 0.657,57.563 0.556,52.19    9.959,42.809 11.528,42.82  "/>
	<polygon style="fill:#1E5C9A;" points="9.959,42.809 0.556,52.19 0.375,42.753  "/>
	<path d="M137.602,90.959h-14.743c-0.272,0-0.494-0.217-0.5-0.489c-0.15-6.825-0.235-14.397-0.317-21.719   c-0.036-3.167-0.071-6.328-0.112-9.431c-0.045-3.531-0.102-6.996-0.18-10.301c-0.039-1.542-0.066-3.57,0.068-5.577   c0.369-5.154,1.742-8.697,4.319-11.154c0.201-0.19,0.517-0.183,0.707,0.017s0.183,0.516-0.017,0.707   c-2.387,2.275-3.662,5.612-4.012,10.5c-0.131,1.964-0.104,3.962-0.066,5.483c0.079,3.31,0.135,6.778,0.18,10.313   c0.041,3.104,0.076,6.266,0.112,9.433c0.08,7.145,0.163,14.528,0.307,21.219h13.751c-0.101-18.175-0.201-36.851-0.291-55.005   c-0.001-0.276,0.221-0.501,0.498-0.502c0.247-0.02,0.501,0.221,0.502,0.498c0.09,18.322,0.192,37.174,0.293,55.507   c0,0.133-0.052,0.261-0.146,0.355C137.863,90.906,137.735,90.959,137.602,90.959z"/>
	<path d="M137.309,35.452c-0.032,0-0.064-0.003-0.097-0.009c-0.634-0.125-1.291-0.26-1.947-0.396   c-0.836-0.169-1.683-0.357-2.539-0.546l-1.543-0.336c-1.27-0.276-2.533-0.551-3.75-0.8c-0.031-0.007-0.062-0.016-0.09-0.028   c-0.146-0.027-0.292-0.056-0.438-0.085l-0.4-0.078c-0.271-0.051-0.451-0.312-0.4-0.583c0.051-0.272,0.311-0.451,0.583-0.4   l0.412,0.08c0.172,0.034,0.347,0.069,0.521,0.1c0.04,0.007,0.077,0.019,0.113,0.034c1.19,0.244,2.423,0.512,3.662,0.781   l1.547,0.337c0.85,0.188,1.691,0.374,2.524,0.543c0.655,0.135,1.308,0.271,1.939,0.394c0.271,0.053,0.448,0.316,0.395,0.587   C137.753,35.287,137.544,35.452,137.309,35.452z"/>
	<path d="M135.366,35.034c-0.254,0-0.472-0.193-0.497-0.451c-0.131-1.317-0.219-2.615-0.304-3.856c-0.105-1.542-0.204-3-0.372-4.291   c-0.09-0.676-0.191-1.443-0.578-2.038c-0.319-0.487-0.981-0.963-1.694-0.851c-0.603,0.103-1.08,0.609-1.54,1.64   c-1.026,2.323-1.774,4.716-2.223,7.113c-0.051,0.271-0.312,0.451-0.583,0.399c-0.271-0.051-0.451-0.312-0.4-0.583   c0.463-2.473,1.234-4.94,2.292-7.335c0.38-0.851,1.03-2.006,2.292-2.221c1.157-0.182,2.186,0.519,2.692,1.292   c0.511,0.787,0.634,1.712,0.732,2.455c0.172,1.323,0.272,2.795,0.378,4.353c0.084,1.231,0.171,2.518,0.301,3.825   c0.027,0.275-0.173,0.52-0.448,0.547C135.4,35.034,135.383,35.034,135.366,35.034z"/>
	<path d="M139.849,17.399c-0.1,0-0.191-0.06-0.231-0.154c-0.044-0.105-0.011-0.228,0.081-0.296l10.814-8.117   c0.059-0.045,0.136-0.061,0.209-0.043c0.073,0.018,0.134,0.067,0.166,0.134l2.936,6.085c0.035,0.072,0.033,0.156-0.004,0.226   c-0.037,0.07-0.105,0.119-0.184,0.13l-13.75,2.032C139.873,17.398,139.861,17.399,139.849,17.399z M150.57,9.415l-9.783,7.343   l12.439-1.838L150.57,9.415z"/>
	<path d="M152.244,39.029c-0.069,0-0.135-0.029-0.183-0.08l-9.02-9.686c-0.068-0.073-0.086-0.179-0.046-0.27   c0.04-0.091,0.129-0.15,0.229-0.15c0.915,0,13.051,2.158,13.568,2.25c0.081,0.014,0.15,0.068,0.184,0.143   c0.034,0.075,0.029,0.162-0.014,0.232l-4.504,7.439c-0.041,0.067-0.11,0.111-0.188,0.119   C152.261,39.028,152.252,39.029,152.244,39.029z M143.864,29.413l8.337,8.953l4.144-6.844   C152.495,30.838,145.98,29.704,143.864,29.413z"/>
	<path d="M131.969,13.335c-0.011,0-0.021-0.001-0.032-0.002c-0.111-0.014-0.2-0.102-0.215-0.213l-1.806-12.835   c-0.01-0.072,0.011-0.144,0.059-0.199C130.022,0.031,130.09,0,130.163,0h7.214c0.084,0,0.162,0.042,0.208,0.112   c0.046,0.07,0.054,0.158,0.022,0.235l-5.408,12.835C132.16,13.276,132.068,13.335,131.969,13.335z M130.45,0.5l1.64,11.654L137,0.5   H130.45z"/>
	<path d="M122.215,16.936c-0.039,0-0.078-0.009-0.114-0.027l-13.242-6.751c-0.086-0.044-0.139-0.133-0.136-0.23   s0.061-0.183,0.15-0.222l7.213-3.161c0.113-0.05,0.249-0.008,0.313,0.099l6.028,9.911c0.058,0.095,0.046,0.218-0.03,0.3   C122.35,16.909,122.283,16.936,122.215,16.936z M109.558,9.953l11.986,6.111l-5.457-8.972L109.558,9.953z"/>
	<path d="M112.044,35.258c-0.014,0-0.028-0.001-0.042-0.004c-0.084-0.015-0.155-0.071-0.188-0.149l-3.07-7.27   c-0.048-0.115-0.005-0.248,0.102-0.312c1.142-0.685,10.525-1.805,11.591-1.931c0.103-0.015,0.205,0.042,0.252,0.135   s0.032,0.206-0.039,0.283l-8.422,9.167C112.18,35.23,112.113,35.258,112.044,35.258z M109.298,27.864l2.825,6.688l7.701-8.383   C116.773,26.542,110.675,27.357,109.298,27.864z"/>
	<path d="M132.556,90.584c-0.001,0-0.003,0-0.004,0c-0.069-0.002-0.123-0.06-0.121-0.129c0.002-0.054,0.177-5.54-1.048-12.991   c-0.926-5.694,0.162-12.064,1.213-18.224c0.356-2.083,0.691-4.049,0.954-5.993c1.035-7.679-1.162-19.171-1.184-19.286   c-0.013-0.068,0.031-0.133,0.099-0.146c0.07-0.012,0.134,0.031,0.146,0.099c0.022,0.115,2.228,11.646,1.187,19.367   c-0.263,1.949-0.599,3.918-0.955,6.002c-1.048,6.14-2.133,12.489-1.213,18.142c1.229,7.478,1.053,12.986,1.051,13.041   C132.679,90.531,132.623,90.584,132.556,90.584z"/>
	<path d="M122.295,59.688c-0.002,0-0.003,0-0.005,0L0.651,57.938c-0.202-0.003-0.365-0.166-0.369-0.368L0,42.76   c-0.002-0.101,0.037-0.198,0.108-0.271c0.071-0.071,0.167-0.112,0.267-0.112c0,0,0.001,0,0.002,0L122.297,43.1   c0.207,0.001,0.374,0.17,0.373,0.377c-0.001,0.206-0.169,0.373-0.375,0.373c-0.001,0-0.001,0-0.002,0L0.757,43.13l0.268,14.064   L122.3,58.938c0.207,0.003,0.373,0.173,0.37,0.38C122.667,59.524,122.499,59.688,122.295,59.688z"/>
	<path d="M0.545,52.315c-0.032,0-0.064-0.012-0.088-0.037c-0.049-0.049-0.049-0.128,0-0.177l9.404-9.381   c0.049-0.049,0.128-0.049,0.177,0c0.049,0.049,0.049,0.128,0,0.177l-9.404,9.381C0.608,52.303,0.576,52.315,0.545,52.315z"/>
	<path d="M13.358,57.869c-0.032,0-0.064-0.012-0.088-0.036c-0.049-0.049-0.049-0.128-0.001-0.177l14.438-14.529   c0.048-0.049,0.128-0.049,0.177,0c0.049,0.049,0.049,0.128,0.001,0.177L13.446,57.832C13.422,57.857,13.39,57.869,13.358,57.869z"/>
	<path d="M22.535,57.869c-0.032,0-0.063-0.012-0.088-0.036c-0.049-0.048-0.05-0.127-0.001-0.177l14.292-14.529   c0.05-0.05,0.128-0.05,0.177-0.001c0.049,0.048,0.05,0.127,0.001,0.177L22.625,57.832C22.6,57.857,22.567,57.869,22.535,57.869z"/>
	<path d="M40.405,58.23c-0.032,0-0.063-0.012-0.088-0.036c-0.049-0.048-0.05-0.128-0.001-0.177l14.653-14.89   c0.049-0.05,0.128-0.05,0.177-0.001c0.049,0.048,0.05,0.128,0.001,0.177l-14.653,14.89C40.47,58.218,40.438,58.23,40.405,58.23z"/>
	<path d="M49.448,58.23c-0.032,0-0.063-0.012-0.087-0.036c-0.049-0.048-0.05-0.127-0.002-0.177L64,43.128   c0.049-0.05,0.128-0.05,0.177-0.001c0.049,0.048,0.05,0.127,0.002,0.177l-14.642,14.89C49.512,58.218,49.48,58.23,49.448,58.23z"/>
	<path d="M68.063,58.23c-0.032,0-0.063-0.012-0.087-0.036c-0.049-0.048-0.05-0.127-0.002-0.177l14.643-14.891   c0.049-0.049,0.128-0.048,0.177,0.001s0.048,0.128-0.001,0.177l-0.023,0.023L68.152,58.193   C68.128,58.218,68.095,58.23,68.063,58.23z"/>
	<path d="M76.744,58.58c-0.032,0-0.063-0.012-0.088-0.036c-0.049-0.048-0.05-0.127-0.001-0.177l14.992-15.24   c0.048-0.049,0.128-0.049,0.177,0c0.049,0.049,0.049,0.128,0.001,0.177l-0.079,0.079l-14.912,15.16   C76.809,58.568,76.776,58.58,76.744,58.58z"/>
	<path d="M95.156,58.58c-0.032,0-0.063-0.012-0.087-0.036c-0.049-0.048-0.05-0.127-0.002-0.177l14.642-14.89   c0.049-0.049,0.128-0.05,0.177-0.001c0.049,0.048,0.05,0.127,0.002,0.177l-14.642,14.89C95.221,58.568,95.189,58.58,95.156,58.58z"/>
	<path d="M104.289,59.14l-0.102-0.075l-0.088-0.088l0.011-0.011l14.628-15.486c0.047-0.05,0.126-0.052,0.177-0.005   c0.05,0.047,0.052,0.126,0.005,0.177L104.289,59.14z"/>
</g>

            </g>
        </g>
    </g>
    
    <!-- ITEM 2 -->
    <g>
        <defs>
            <clipPath id="clip-path-id-viewbox-item-2">
                <rect x="0.0" y="0.0" width="24.858" height="19.812"/>
            </clipPath>
        </defs>
        <g transform="translate(935.0 270.0) rotate(0.0 27.0 21.5) scale(2.172338884866039 2.1704017767009893)">
            <g clip-path="url(#clip-path-id-viewbox-item-2)" transform="translate(-0.0 -0.0)">
                
<g>
	<path style="fill:#2D9759;" d="M22.851,7.426c5.915,8.963-5.769,17.882-10.871,6.988c-0.96-2.066-2.009-4.109-3.274-6.017   C6.764,5.451,3.841,3.17,0.522,1.974L0.465,1.782c3.658-1.208,7.586-1.784,11.379-1.14C15.671,1.285,20.706,4.186,22.851,7.426z"/>
	<path d="M18.292,19.812c-0.07,0-0.14-0.001-0.21-0.004c-1.517-0.056-4.37-0.811-6.441-5.235c-1.132-2.438-2.164-4.334-3.247-5.969   c-1.892-2.871-4.733-5.1-7.999-6.278c-0.096-0.034-0.169-0.104-0.21-0.189C0.103,2.096,0.038,2.021,0.005,1.924   C-0.062,1.728,0.058,1.516,0.254,1.45l0.07,0.205c0.001-0.001,0.003-0.002,0.004-0.003L0.266,1.445   c0.02-0.007,0.058-0.017,0.096-0.024C4.491,0.06,8.377-0.327,11.907,0.272c4.131,0.695,9.181,3.811,11.257,6.947   c1.969,2.984,2.232,6.386,0.705,9.102C22.65,18.49,20.527,19.812,18.292,19.812z M1.355,1.894c3.12,1.287,5.822,3.501,7.664,6.297   c1.104,1.666,2.153,3.594,3.301,6.065c1.41,3.01,3.466,4.716,5.79,4.802c2.024,0.076,3.985-1.115,5.105-3.105   c1.407-2.503,1.161-5.535-0.677-8.32c-1.977-2.986-6.802-5.957-10.756-6.621C8.587,0.469,5.083,0.767,1.355,1.894z"/>
</g>

            </g>
        </g>
    </g>
    
    <!-- ITEM 3 -->
    <g>
        <defs>
            <clipPath id="clip-path-id-viewbox-item-3">
                <rect x="0.0" y="0.0" width="34.85" height="19.538"/>
            </clipPath>
        </defs>
        <g transform="translate(876.0 195.0) rotate(0.0 41.0 23.5) scale(2.3529411764705883 2.4055686354795784)">
            <g clip-path="url(#clip-path-id-viewbox-item-3)" transform="translate(-0.0 -0.0)">
                
<g>
	<path style="fill:#62B57F;" d="M34.321,6.418c0.982,4.967-2.913,7.688-6.028,9.065c1.806-1.355,6.502-5.464,2.167-9.065   c-9.844-8.173-27.195,8.636-28.064,9.494c2.043-3.296,4.29-6.672,6.931-9.234c3.533-3.432,8.151-5.644,13.05-6.22   C26.317,0.006,33.305,1.327,34.321,6.418z"/>
	<path style="fill:#008211;" d="M30.46,6.418c4.335,3.601-0.361,7.71-2.167,9.065c-1.366,0.61-2.574,0.948-3.183,1.118   c-8.421,2.337-16.008,2.45-24.734,2.563c0.643-1.039,1.31-2.122,1.987-3.217c0,0,0.011-0.011,0.034-0.034   C3.265,15.054,20.616-1.755,30.46,6.418z"/>
	<path d="M0.375,19.538c-0.135,0-0.26-0.073-0.327-0.19c-0.067-0.119-0.064-0.266,0.008-0.382l1.987-3.217   c0.016-0.026,0.035-0.05,0.057-0.071c2.034-3.279,4.286-6.669,6.966-9.269c3.599-3.495,8.311-5.741,13.267-6.324   c4.516-0.515,11.322,1.084,12.355,6.26c1.011,5.109-2.838,7.976-6.245,9.481c-1.406,0.628-2.641,0.971-3.234,1.136   c-8.526,2.365-16.081,2.463-24.83,2.576C0.379,19.538,0.377,19.538,0.375,19.538z M2.658,16.18l-1.605,2.6   c8.409-0.11,15.746-0.262,23.956-2.54c0.576-0.16,1.774-0.493,3.13-1.099c3.157-1.396,6.728-4.028,5.813-8.65   c-0.93-4.656-7.428-6.132-11.533-5.661c-4.793,0.563-9.35,2.736-12.831,6.117c-2.632,2.554-4.859,5.913-6.874,9.163   C2.698,16.136,2.679,16.159,2.658,16.18z"/>
	<path d="M2.662,16.176l-0.3-0.23l-0.265-0.265l0.265,0.265l-0.233-0.298c0.145-0.147,0.382-0.149,0.53-0.003   C2.807,15.791,2.808,16.028,2.662,16.176z"/>
</g>

            </g>
        </g>
    </g>
    
    <!-- ITEM 4 -->
    <g>
        <defs>
            <clipPath id="clip-path-id-viewbox-item-4">
                <rect x="0.0" y="0.0" width="340.432" height="5.03"/>
            </clipPath>
        </defs>
        <g transform="translate(497.0 1292.0) rotate(0.0 365.0 6.5) scale(2.1443342576491045 2.5844930417495027)">
            <g clip-path="url(#clip-path-id-viewbox-item-4)" transform="translate(-0.0 -0.0)">
                
<g>
	<path d="M136.525,5.031c-0.081,0-0.161-0.006-0.243-0.018c-0.491-0.074-0.899-0.227-1.293-0.375   c-0.392-0.146-0.762-0.285-1.188-0.336c-7.039-0.852-12.967-0.968-18.655-0.362c-3.988,0.425-8.198,0.252-12.269,0.086   c-1.814-0.074-3.69-0.151-5.49-0.171c-3.273-0.036-6.48-0.563-9.583-1.073c-3.055-0.502-6.215-1.021-9.413-1.063   c-0.458-0.006-0.949-0.042-1.447-0.079c-0.891-0.065-1.813-0.134-2.601-0.024c-0.573,0.079-1.098,0.32-1.653,0.576   c-0.484,0.223-0.984,0.453-1.536,0.579c-0.914,0.208-1.837,0.143-2.73,0.08c-0.802-0.057-1.561-0.111-2.3,0.021   c-0.737,0.132-1.473,0.297-2.21,0.462c-1.255,0.282-2.552,0.573-3.862,0.696c-0.95,0.09-1.743-0.143-2.511-0.367   c-0.544-0.159-1.059-0.309-1.626-0.353c-2.065-0.159-3.911,0.118-5.779,0.44c-0.91,0.158-1.677-0.062-2.419-0.273   c-0.693-0.197-1.348-0.384-2.153-0.309c-0.688,0.063-1.342,0.164-1.99,0.264c-1.078,0.166-2.192,0.338-3.417,0.323   c-2.21-0.027-4.573-0.016-7.075,0.395c-2.983,0.489-6.111,0.349-9.136,0.214c-2.559-0.115-5.206-0.233-7.725,0.036   c-2.059,0.22-3.993,0.02-5.865-0.174C9.157,4.1,7.916,3.971,6.636,3.951C5.725,3.933,4.793,4.096,3.885,4.25   C2.72,4.447,1.517,4.652,0.329,4.505C0.124,4.479-0.022,4.292,0.003,4.086c0.025-0.205,0.212-0.351,0.418-0.326   C1.498,3.894,2.597,3.708,3.76,3.51c0.941-0.159,1.917-0.32,2.888-0.309c1.312,0.021,2.57,0.151,3.787,0.277   c1.917,0.198,3.728,0.386,5.707,0.174c2.576-0.275,5.252-0.155,7.839-0.039c2.987,0.134,6.074,0.272,8.981-0.205   c2.562-0.42,4.966-0.431,7.205-0.404c1.169,0.01,2.198-0.146,3.294-0.314c0.662-0.102,1.331-0.205,2.035-0.27   c0.943-0.086,1.699,0.127,2.427,0.335c0.692,0.197,1.347,0.383,2.086,0.255c1.917-0.331,3.817-0.613,5.963-0.449   c0.646,0.049,1.223,0.218,1.78,0.381c0.733,0.214,1.425,0.414,2.23,0.341c1.262-0.119,2.536-0.405,3.768-0.681   c0.748-0.168,1.495-0.335,2.242-0.469c0.832-0.149,1.672-0.089,2.485-0.031c0.876,0.062,1.705,0.121,2.51-0.063   c0.476-0.108,0.92-0.313,1.39-0.529c0.581-0.267,1.181-0.543,1.864-0.638c0.865-0.12,1.828-0.049,2.758,0.02   c0.483,0.035,0.958,0.071,1.402,0.076c3.254,0.043,6.442,0.566,9.525,1.073c3.075,0.505,6.253,1.028,9.469,1.063   c1.812,0.02,3.693,0.097,5.513,0.171c4.044,0.166,8.227,0.337,12.159-0.082c5.746-0.612,11.729-0.496,18.824,0.363   c0.515,0.062,0.945,0.223,1.36,0.379c0.375,0.14,0.73,0.273,1.144,0.336c0.569,0.087,1.271-0.423,1.959-0.914   c0.741-0.529,1.501-1.075,2.295-1.066c0.932,0.012,1.887-0.012,2.853-0.036c2.28-0.057,4.64-0.117,6.833,0.304l0.675,0.135   c1.28,0.261,2.206,0.449,3.6,0.11c0.749-0.183,1.216-0.297,1.995-0.314c0.492-0.011,0.973-0.004,1.447,0.003   c1.188,0.018,2.311,0.035,3.469-0.239c2.524-0.597,5.086-0.26,7.563,0.065c1.395,0.183,2.837,0.373,4.247,0.39   c1.577,0.02,2.987-0.151,4.481-0.332c0.47-0.057,0.947-0.114,1.438-0.167c1.163-0.125,2.317,0.192,3.434,0.498   c1.094,0.3,2.125,0.585,3.146,0.477l0.212-0.022c3.191-0.334,5.947-0.622,9.197,0.061c2.037,0.429,4.249-0.095,6.387-0.599   c1.034-0.244,2.104-0.497,3.131-0.634c1.448-0.194,2.921-0.154,4.346-0.115c1.101,0.03,2.24,0.061,3.344-0.019   c1.104-0.081,2.31,0.105,3.474,0.283c1.638,0.251,3.331,0.511,4.738,0.03c0.552-0.188,1.071-0.431,1.621-0.687   c0.538-0.251,1.093-0.51,1.68-0.713c1.454-0.503,2.713-0.469,4.165-0.429l0.767,0.018c0.869,0.014,1.735,0.034,2.601,0.054   c3.464,0.079,7.046,0.161,10.575-0.154c3.292-0.292,8.085,0.222,11.654,1.253c0.816,0.236,1.54,0,2.378-0.274   c0.73-0.239,1.486-0.486,2.389-0.447c2.654,0.114,5.228-0.095,8.273-0.442c1.259-0.143,2.215,0.062,3.228,0.28   c0.615,0.132,1.252,0.269,1.975,0.323c1.144,0.084,2.302-0.179,3.53-0.458C276.567,0.249,277.682,0,278.773,0   c1.068,0.004,1.886,0.201,2.75,0.41c0.356,0.086,0.724,0.175,1.125,0.253c1.141,0.223,2.426-0.008,3.67-0.232   c0.849-0.153,1.726-0.31,2.566-0.328c3.583-0.073,7.237,0.023,10.771,0.117c1.935,0.051,3.868,0.103,5.795,0.127   c2.039,0.026,4.113,0.245,6.118,0.456c3.545,0.374,7.209,0.761,10.754,0.083c1.88-0.359,3.538-0.116,5.141,0.118   c0.951,0.139,1.935,0.284,2.978,0.308c0.599,0.014,1.198,0.017,1.797,0.019c0.598,0.002,1.195,0.005,1.793,0.019   c0.904,0.022,1.845-0.118,2.756-0.253c1.085-0.16,2.205-0.326,3.301-0.233c0.207,0.018,0.359,0.199,0.342,0.406   c-0.018,0.207-0.199,0.36-0.405,0.342c-1.006-0.085-2.037,0.067-3.128,0.228c-0.943,0.139-1.915,0.282-2.883,0.261   c-0.592-0.014-1.186-0.016-1.778-0.019c-0.604-0.002-1.208-0.005-1.812-0.019c-1.089-0.026-2.096-0.173-3.069-0.316   c-1.612-0.236-3.134-0.46-4.891-0.124c-3.653,0.698-7.375,0.306-10.974-0.073c-1.989-0.21-4.045-0.427-6.049-0.452   c-1.931-0.025-3.868-0.076-5.805-0.128c-3.526-0.093-7.172-0.19-10.735-0.117c-0.781,0.016-1.591,0.162-2.449,0.316   c-1.312,0.236-2.669,0.479-3.946,0.23c-0.412-0.081-0.79-0.172-1.157-0.26c-0.857-0.207-1.597-0.385-2.578-0.389   c-0.007,0-0.014,0-0.021,0c-1.005,0-2.063,0.241-3.087,0.474c-1.228,0.28-2.498,0.57-3.752,0.475   c-0.774-0.058-1.436-0.2-2.077-0.337c-0.951-0.205-1.852-0.397-2.985-0.268c-3.08,0.351-5.685,0.56-8.391,0.446   c-0.755-0.034-1.457,0.193-2.125,0.411c-0.875,0.286-1.781,0.582-2.818,0.282c-3.49-1.009-8.171-1.512-11.38-1.227   c-3.57,0.318-7.173,0.236-10.658,0.156c-0.864-0.02-1.729-0.04-2.596-0.053l-0.775-0.018c-1.38-0.038-2.574-0.07-3.899,0.388   c-0.55,0.19-1.087,0.441-1.607,0.684c-0.543,0.254-1.105,0.516-1.696,0.718c-1.583,0.54-3.368,0.266-5.094,0.001   c-1.174-0.18-2.283-0.349-3.306-0.277c-1.141,0.082-2.298,0.051-3.418,0.02c-1.396-0.038-2.838-0.077-4.226,0.109   c-0.99,0.132-1.995,0.369-3.058,0.62c-2.219,0.524-4.51,1.067-6.713,0.603c-3.135-0.659-5.836-0.376-8.964-0.049l-0.212,0.022   c-1.158,0.12-2.31-0.195-3.422-0.5c-1.097-0.301-2.131-0.586-3.155-0.476c-0.488,0.053-0.962,0.11-1.429,0.166   c-1.52,0.183-2.971,0.353-4.58,0.337c-1.455-0.018-2.919-0.21-4.335-0.397c-2.521-0.331-4.902-0.645-7.292-0.079   c-1.25,0.295-2.415,0.277-3.653,0.259c-0.466-0.008-0.937-0.015-1.419-0.003c-0.697,0.015-1.109,0.116-1.792,0.282   c-1.599,0.39-2.646,0.177-3.97-0.093l-0.667-0.133c-2.114-0.406-4.432-0.347-6.673-0.291c-0.976,0.025-1.941,0.048-2.882,0.036   c-0.585-0.005-1.206,0.468-1.849,0.926C138.056,4.491,137.3,5.031,136.525,5.031z"/>
</g>

            </g>
        </g>
    </g>
    
    <!-- ITEM 5 -->
    <g>
        <defs>
            <clipPath id="clip-path-id-viewbox-item-5">
                <rect x="0.0" y="0.0" width="206.117" height="126.748"/>
            </clipPath>
        </defs>
        <g transform="translate(490.0 639.0) rotate(0.0 179.0 110.0) scale(1.7368775986454297 1.735727585445135)">
            <g clip-path="url(#clip-path-id-viewbox-item-5)" transform="translate(-0.0 -0.0)">
                
<g>
	<path style="fill:#FAD86E;" d="M29.359,105.864c-1.471,3.343-2.995,8.532-6.722,10.011c-4.387,1.741-6.121-2.102-7.332-5.634   c-2.609-7.61-3.944-15.773-4.146-23.796c-0.195-7.705,0.188-16.03,2.423-23.458c1.955-6.496,9.63-13.152,14.393-4.75   c1.829,3.226,6.728,2.427,7.741-1.012c1.764-5.987-0.863-11.316-6.373-14.078c-5.791-2.902-12.679-0.884-17.414,3.115   C2.058,54.6,0.55,71.458,0.088,83.463c-0.468,12.145,0.681,29.624,9.753,38.87c3.243,3.305,6.612,4.544,9.883,4.405   c4.359-0.314,9.394-2.146,12.271-5.847c2.664-2.767,4.726-6.708,6.275-9.818C41.257,105.068,31.993,99.877,29.359,105.864z"/>
	<path style="fill:#FAD86E;" d="M60.14,92.049c-1.778,3.039-3.645,6.005-5.598,8.935c-0.186,0.304-0.385,0.599-0.579,0.897   c-1.302-7.373-2.198-14.803-2.715-22.272c-0.952-13.726,0.51-28.531-2.748-41.965c-0.315-1.298-2.269-1.583-2.901-0.379   c-4.402,8.385-5.656,19.097-6.045,28.475c-0.44,10.6,0.347,21.409,1.627,31.928c0.436,3.581,0.336,8.184,1.942,12.577   c1.431,3.592,5.725,7.709,11.636,5.944c5.912-1.765,10.196-11.474,10.196-11.474c1.404-2.287,2.683-5.164,4.232-7.377   C73.022,91.858,63.582,86.165,60.14,92.049z"/>
	<path style="fill:#FAD86E;" d="M98.74,36.448c-0.528-0.955-1.293-1.573-2.148-1.919c-0.69-3.046-2.864-5.793-5.917-7.099   c-7.32-3.131-14.666,1.388-18.588,7.509c-10.094,15.752-7.452,37.998-2.422,54.949c1.877,6.325,4.233,15.263,12.177,15.92   c7.922,0.655,12.104-7.918,14.589-13.977c3.602-8.783,5.986-18.388,6.549-27.882C103.487,55.395,102.937,44.032,98.74,36.448z    M91.794,70.763c-0.487,5.719-1.775,11.342-3.609,16.777c-0.81,2.4-1.613,5.058-3.042,7.172c-2.297,3.397-3.012,0.731-3.745-2.018   c-2.87-10.757-4.263-22.324-4.09-33.434c0.083-5.34,0.717-10.775,2.541-15.828c0.908-2.517,2.098-4.81,4.252-6.445   c1.807-1.371,4.978-2.061,6.816-0.88c-0.56,0.73-0.913,1.64-0.904,2.704c0.046,5.461,1.772,10.85,2.051,16.35   C92.326,60.329,92.233,65.608,91.794,70.763z"/>
	<path style="fill:#FAD86E;" d="M121.81,42.848c-3.923-4.118-6.671-9.452-3.176-14.861c2.648-4.099,7.435-4.807,10.852-7.75   c0.637-0.549,0.627-1.669,0.04-2.245c-4.773-4.685-13.262-1.187-17.351,2.794c-6.234,6.068-7.621,15.745-4.112,23.544   c3.707,8.238,11.063,13.629,12.648,22.976c0.89,5.244-0.318,22.424-8.8,16.559c-4.182-2.892-10.668,1.709-8.983,6.652   c1.788,5.244,6.193,7.905,10.99,8.25c4.282,0.363,8.404-0.76,11.225-3.58c7.531-6.155,9.91-17.534,9.08-26.803   C133.308,58.155,128.775,50.16,121.81,42.848z"/>
	<path style="fill:#FAD86E;" d="M160.013,73.343c-3.171,1.611-4.394,5.448-7.29,6.925c-4.579,2.336-4.219-4.309-4.403-7.241   c-0.153-2.431-0.284-4.863-0.407-7.295c0.185-0.133,0.374-0.258,0.551-0.41c2.828-2.428,4.154-6.2,5.984-9.571   c1.464-2.698,3.706-4.817,4.965-7.624c0.346-0.772,0.242-1.715-0.57-2.172c-3.782-2.127-8.042-0.877-11.784,0.757   c-0.413-7.787-1.831-16.66,0.376-24.195c1-3.415,2.989-6.138,6.07-7.945c2.448-1.436,5.465-1.348,7.789-2.892   c0.559-0.372,0.965-1.108,0.73-1.793c-3.228-9.415-16.713-1.214-20.172,3.691c-7.352,10.426-4.571,26.194-4.324,38.13   c0.028,1.364,0.055,2.729,0.083,4.093c-0.635,1.483-1.002,3.043-0.978,4.62c0.023,1.482,0.452,2.741,1.136,3.765   c0.051,2.947,0.099,5.894,0.119,8.841c0.035,5.157,0.011,10.819,3.536,14.981c7.981,9.422,24.615,3.175,28.383-7.136   C171.952,75.007,164.768,70.928,160.013,73.343z"/>
	<path style="fill:#FAD86E;" d="M206.099,50.777C205.69,29.712,195.676,8.22,175.049,0.461c-8.509-3.2-12.746,11.213-3.798,13.777   c1.453,0.416,2.817,0.93,4.098,1.53c-1.227,9.875-1.275,19.678-1.002,29.792c0.171,6.338,0.408,12.669,0.698,19.003   c0.299,6.544-0.283,13.682,1.157,20.059c0.475,2.104,2.681,3.068,4.614,2.787c5.388,1.664,12.914-2.761,16.331-6.331   C204.78,73.104,206.304,61.331,206.099,50.777z M189.255,70.996c-1.292,2.292-2.909,4.291-4.845,6   c-0.003-3.791-0.28-7.632-0.283-11.313c-0.006-6.71-0.057-13.413-0.188-20.122c-0.166-8.49-0.531-16.74-1.625-24.967   c7.193,6.995,10.095,17.829,10.55,28.269C193.182,56.171,192.941,64.461,189.255,70.996z"/>
</g>

            </g>
        </g>
    </g>
    
</svg>