<?xml version="1.0" encoding="UTF-8"?><svg version="1.1" id="Layer_1" xmlns="http://www.w3.org/2000/svg" xmlns:xlink="http://www.w3.org/1999/xlink" x="0px" y="0px" viewBox="0 0 790 916" style="enable-background:new 0 0 790 916;" xml:space="preserve" width="790px" height="916px">
<g>
	<path style="fill:#F7D06F;" d="M759.992,486.618c70.547,273.21,24.168,436.802-219.235,429.897
		c-222.055-6.272-307.332,20.715-375.808-74.632c-46.494-64.735-78.487-166.699-82.918-275.051
		c-4.949-121.702,24.916-251.402,108.237-345.31C405.245-20.846,674.485,155.29,759.992,486.618z"/>
	<path style="fill:#F7D06F;" d="M220.19,139.063c-50.119,44.192-76.186,99.836-114.969,73.596
		c-54.262-36.654-2.532-127.053,46.667-170.21c51.788-45.458,160.715-65.771,177.057-2.417
		C338.669,77.781,272.035,93.317,220.19,139.063z"/>
	<path style="fill:#F7D06F;" d="M82.721,347.136c-7.998,27.16-10.588,69.396-38.898,68.59c-28.311-0.806-44.595-30.9-43.79-59.211
		s18.816-59.153,47.127-58.348C75.529,298.973,90.72,319.976,82.721,347.136z"/>
</g>
</svg>